<svg viewBox="0 0 16 18" fill="currentColor"
    xmlns="http://www.w3.org/2000/svg">
    <path fill-rule="evenodd" clip-rule="evenodd" d="M4 18H12L12.7334 9.93292C14.5923 9.58848 16 7.95864 16 6C16 3.79086 14.2091 2 12 2C11.8251 2 11.6528 2.01123 11.4838 2.03301C10.797 0.819225 9.49415 0 8 0C6.50585 0 5.20304 0.819225 4.51624 2.03301C4.34724 2.01123 4.17493 2 4 2C1.79086 2 0 3.79086 0 6C0 7.95864 1.40774 9.58848 3.26663 9.93292L4 18ZM12.6423 9.44129L12.2697 9.51032L11.8388 14.25H10.25V11H9.75V14.25H8.25V10H7.75V14.25H6.25V11H5.75V14.25H4.16115L3.73027 9.51032L3.35773 9.44129C1.7315 9.13996 0.5 7.71327 0.5 6C0.5 4.067 2.067 2.5 4 2.5C4.15351 2.5 4.30448 2.50985 4.45235 2.52891L4.78583 2.57188L4.95141 2.27924C5.5531 1.21588 6.69327 0.5 8 0.5C9.30673 0.5 10.4469 1.21588 11.0486 2.27924L11.2142 2.57188L11.5477 2.52891C11.6955 2.50985 11.8465 2.5 12 2.5C13.933 2.5 15.5 4.067 15.5 6C15.5 7.71327 14.2685 9.13996 12.6423 9.44129ZM4.20661 14.75L4.45661 17.5H11.5434L11.7934 14.75H4.20661Z" />
</svg>
