<svg viewBox="0 0 32 30" fill="currentColor"
    xmlns="http://www.w3.org/2000/svg">
    <path fill-rule="evenodd" clip-rule="evenodd" d="M30.6667 1H1V29H30.6667V1ZM0 0V30H31.6667V0H0Z"/>
    <path fill-rule="evenodd" clip-rule="evenodd" d="M15.6667 4.33333H4.33333V16.5H15.6667V4.33333ZM3.33333 3.33333V17.5H16.6667V3.33333H3.33333Z"/>
    <path fill-rule="evenodd" clip-rule="evenodd" d="M28.3333 4.66667H18.3333V3.66667H28.3333V4.66667Z"/>
    <path fill-rule="evenodd" clip-rule="evenodd" d="M28.3333 8.83333H18.3333V7.83333H28.3333V8.83333Z"/>
    <path fill-rule="evenodd" clip-rule="evenodd" d="M28.3333 13H18.3333V12H28.3333V13Z"/>
    <path fill-rule="evenodd" clip-rule="evenodd" d="M28.3333 17.1667H18.3333V16.1667H28.3333V17.1667Z"/>
    <path fill-rule="evenodd" clip-rule="evenodd" d="M28.3333 21.3333H3.33333V20.3333H28.3333V21.3333Z"/>
    <path fill-rule="evenodd" clip-rule="evenodd" d="M28.3333 25.5H3.33333V24.5H28.3333V25.5Z"/>
</svg>
