<?xml version="1.0" standalone="no"?>
<!DOCTYPE svg PUBLIC "-//W3C//DTD SVG 1.1//EN" "http://www.w3.org/Graphics/SVG/1.1/DTD/svg11.dtd" >
<svg xmlns="http://www.w3.org/2000/svg" xmlns:xlink="http://www.w3.org/1999/xlink" version="1.1">
<metadata>
Created by FontForge 20200427 at Thu Nov 27 21:26:43 2014
 By www
Copyright (c) 2012-2013 Monotype Imaging Inc. All rights reserved.
</metadata>
<defs>
<font id="TipperaryeTextW01-Regular" horiz-adv-x="1139" >
  <font-face 
    font-family="TipperaryeTextW01-Regular"
    font-weight="400"
    font-stretch="normal"
    units-per-em="2048"
    panose-1="2 0 5 3 3 0 0 2 0 4"
    ascent="1638"
    descent="-410"
    x-height="1085"
    cap-height="1454"
    bbox="-233 -547 2015 1944"
    underline-thickness="102"
    underline-position="-358"
    unicode-range="U+0020-2122"
  />
<missing-glyph horiz-adv-x="1024" 
d="M25 0v1362h972v-1362h-972zM842 1266h-662l332 -498zM453 682l-330 496v-992zM901 1178l-332 -496l332 -498v994zM512 594l-332 -496h662z" />
    <glyph glyph-name=".notdef" horiz-adv-x="1024" 
d="M25 0v1362h972v-1362h-972zM842 1266h-662l332 -498zM453 682l-330 496v-992zM901 1178l-332 -496l332 -498v994zM512 594l-332 -496h662z" />
    <glyph glyph-name="glyph1" horiz-adv-x="0" 
 />
    <glyph glyph-name="glyph1" horiz-adv-x="0" 
 />
    <glyph glyph-name="nonmarkingreturn" horiz-adv-x="682" 
 />
    <glyph glyph-name="space" unicode=" " horiz-adv-x="506" 
 />
    <glyph glyph-name="exclam" unicode="!" horiz-adv-x="592" 
d="M362 453h-133l-24 1001h184zM186 102q0 47 32 81t79 34q44 0 76.5 -33t32.5 -82q0 -46 -32 -78t-77 -32q-47 0 -79 33t-32 77z" />
    <glyph glyph-name="quotedbl" unicode="&#x22;" horiz-adv-x="772" 
d="M629 969h-125l-29 485h182zM268 969h-121l-32 485h184z" />
    <glyph glyph-name="numbersign" unicode="#" horiz-adv-x="1325" 
d="M205 0l100 477h-219l29 123h217l55 266h-215l25 123h215l102 465h125l-98 -465h293l98 465h127l-101 -465h226l-29 -123h-221l-55 -266h221l-27 -123h-221l-100 -477h-127l102 477h-293l-104 -477h-125zM457 600h295l55 266h-293z" />
    <glyph glyph-name="dollar" unicode="$" 
d="M950 438q0 -141 -84 -231t-239 -109v-166h-119v162q-193 4 -330 51l33 146q166 -58 330 -58q116 0 181.5 53.5t65.5 143.5q0 84 -57 138.5t-209 121.5q-180 78 -251.5 156t-71.5 203q0 116 77.5 197t229.5 100v159h121v-153q153 -9 270 -39l-35 -142q-155 43 -280 43
q-117 0 -171.5 -45t-54.5 -112q0 -80 66.5 -133.5t208.5 -114.5q172 -76 245.5 -156t73.5 -215z" />
    <glyph glyph-name="percent" unicode="%" horiz-adv-x="1389" 
d="M623 1135q0 -340 -275 -340q-276 0 -276 340q0 180 70.5 260t205.5 80q275 0 275 -340zM414 0h-131l702 1454h129zM494 1135q0 129 -37 182t-109 53q-76 0 -110.5 -53t-34.5 -182q0 -134 38 -185t107 -51q70 0 108 51t38 185zM1317 319q0 -339 -277 -339q-276 0 -276 339
q0 340 276 340q277 0 277 -340zM1186 319q0 130 -37 183t-109 53q-73 0 -109 -53t-36 -183q0 -133 38 -184t107 -51q70 0 108 51t38 184z" />
    <glyph glyph-name="ampersand" unicode="&#x26;" horiz-adv-x="1417" 
d="M117 418q0 149 57 240.5t201 170.5q-103 179 -103 345q0 145 83 223t241 78q164 0 238.5 -81t74.5 -212q0 -127 -71.5 -212t-257.5 -179q188 -259 436 -478q76 121 76 367h159q0 -285 -114 -459q116 -82 239 -119l-49 -145q-153 47 -291 147q-155 -124 -409 -124
q-252 0 -381 111.5t-129 326.5zM623 123q188 0 292 78q-94 82 -228 230.5t-234 291.5q-88 -53 -129 -115.5t-41 -185.5q0 -299 340 -299zM422 1167q0 -131 84 -270q151 76 203.5 134.5t52.5 148.5q0 166 -166 166q-174 0 -174 -179z" />
    <glyph glyph-name="quotesingle" unicode="'" horiz-adv-x="414" 
d="M268 969h-121l-32 485h184z" />
    <glyph glyph-name="parenleft" unicode="(" horiz-adv-x="602" 
d="M367 -342q-205 389 -205 958q4 576 205 957h145q-190 -410 -190 -957q0 -557 190 -958h-145z" />
    <glyph glyph-name="parenright" unicode=")" horiz-adv-x="602" 
d="M90 -342q191 410 191 958q0 551 -193 957h145q205 -389 205 -957q0 -575 -205 -958h-143z" />
    <glyph glyph-name="asterisk" unicode="*" horiz-adv-x="1085" 
d="M866 877l-121 -82l-196 282l-199 -282l-119 82l224 264l-316 80l41 145l312 -123l-17 330h143l-18 -330l313 123l41 -145l-315 -80z" />
    <glyph glyph-name="plus" unicode="+" 
d="M635 635v-424h-137v424h-422v137h422v424h137v-424h426v-137h-426z" />
    <glyph glyph-name="comma" unicode="," horiz-adv-x="416" 
d="M328 180l-172 -438h-115l115 489h153z" />
    <glyph glyph-name="hyphen" unicode="-" horiz-adv-x="774" 
d="M125 483v140h524v-140h-524z" />
    <glyph glyph-name="period" unicode="." horiz-adv-x="434" 
d="M106 102q0 47 32 81t79 34q44 0 76.5 -33t32.5 -82q0 -46 -32 -78t-77 -32q-47 0 -79 33t-32 77z" />
    <glyph glyph-name="slash" unicode="/" horiz-adv-x="834" 
d="M180 -166h-149l620 1739h150z" />
    <glyph glyph-name="zero" unicode="0" 
d="M1034 743q0 -397 -113.5 -580t-349.5 -183q-243 0 -355 172t-112 557q0 389 114 577.5t353 188.5q242 0 352.5 -172.5t110.5 -559.5zM868 748q0 299 -65.5 442t-233.5 143q-153 0 -225 -146.5t-72 -479.5q0 -324 70 -456t227 -132q154 0 226.5 148.5t72.5 480.5z" />
    <glyph glyph-name="one" unicode="1" 
d="M160 1313l426 141h86v-1315h289v-139h-771v139h322v1149l-309 -110z" />
    <glyph glyph-name="two" unicode="2" 
d="M537 1475q212 0 324 -95.5t112 -279.5q0 -155 -74.5 -272t-277.5 -261q-139 -96 -210 -161t-100.5 -122t-29.5 -128v-13h755v-143h-913v121q0 108 32.5 190.5t101 156t245.5 194.5q169 113 235 205t66 220q0 119 -68 180.5t-200 61.5q-150 0 -310 -63l-47 145
q175 64 359 64z" />
    <glyph glyph-name="three" unicode="3" 
d="M770 1100q0 229 -285 229q-153 0 -307 -61l-45 147q174 60 363 60q204 0 322 -85t118 -260q0 -131 -66.5 -221t-185.5 -131q147 -37 229 -133t82 -233q0 -203 -132 -317.5t-367 -114.5q-220 0 -392 45l39 151q181 -53 349 -53q165 0 252 79t87 214q0 137 -103 209.5
t-273 72.5h-154v142h164q145 0 225 66.5t80 193.5z" />
    <glyph glyph-name="four" unicode="4" 
d="M885 1407l-672 -932h512v447h158v-447h231v-147h-231v-328h-158v328h-674v149l709 1010z" />
    <glyph glyph-name="five" unicode="5" 
d="M1004 438q0 -209 -136.5 -333.5t-375.5 -124.5q-224 0 -381 47l41 151q206 -55 350 -55q172 0 256 88t84 223q0 141 -89 214t-296 91l-285 23l109 692h647v-145h-516l-70 -418l166 -12q496 -45 496 -441z" />
    <glyph glyph-name="six" unicode="6" 
d="M111 647q0 352 190.5 574.5t575.5 275.5l26 -149q-305 -50 -451.5 -186t-168.5 -396q149 129 346 129q196 0 302.5 -113.5t106.5 -326.5q0 -226 -114.5 -350.5t-325.5 -124.5q-238 0 -362.5 173t-124.5 494zM872 446q0 162 -71.5 236t-188.5 74q-118 0 -197 -43t-136 -95
q0 -241 81.5 -369t233.5 -128q127 0 202.5 77.5t75.5 247.5z" />
    <glyph glyph-name="seven" unicode="7" 
d="M399 0h-184l666 1309h-787v145h969v-108z" />
    <glyph glyph-name="eight" unicode="8" 
d="M1026 403q0 -202 -124 -312.5t-337 -110.5q-215 0 -334.5 113.5t-119.5 309.5q0 265 256 355q-95 30 -153 123.5t-58 224.5q0 172 109.5 270.5t301.5 98.5q193 0 303.5 -99.5t110.5 -269.5q0 -133 -56.5 -225.5t-158.5 -122.5q129 -41 194.5 -134.5t65.5 -220.5z
M817 1098q0 123 -67.5 182t-182.5 59q-104 0 -178 -58t-74 -183q0 -117 61.5 -195t190.5 -78t189.5 78t60.5 195zM864 414q0 129 -82 204.5t-215 75.5q-135 0 -217 -75.5t-82 -204.5q0 -142 79 -219.5t220 -77.5q140 0 218.5 78.5t78.5 218.5z" />
    <glyph glyph-name="nine" unicode="9" 
d="M1022 813q0 -356 -202 -580.5t-587 -275.5l-26 149q313 50 465.5 186t179.5 396q-64 -53 -141.5 -91t-202.5 -38q-197 0 -305.5 112.5t-108.5 327.5q0 226 121 351t328 125q233 0 356 -172.5t123 -489.5zM260 1008q0 -162 73 -236t189 -74q117 0 196 43t138 95
q0 241 -82 369t-229 128q-127 0 -206 -77.5t-79 -247.5z" />
    <glyph glyph-name="colon" unicode=":" horiz-adv-x="434" 
d="M106 102q0 47 32 81t79 34q44 0 76.5 -33t32.5 -82q0 -46 -32 -78t-77 -32q-47 0 -79 33t-32 77zM106 971q0 46 33 80t78 34q44 0 76.5 -33t32.5 -81q0 -49 -32.5 -80t-76.5 -31q-46 0 -78.5 32t-32.5 79z" />
    <glyph glyph-name="semicolon" unicode=";" horiz-adv-x="449" 
d="M330 180l-170 -438h-115l113 489h155zM121 971q0 48 32.5 81t75.5 33q46 0 78.5 -34t32.5 -80q0 -47 -32.5 -79t-78.5 -32q-43 0 -75.5 31t-32.5 80z" />
    <glyph glyph-name="less" unicode="&#x3c;" 
d="M1061 1034l-817 -332l817 -331v-150l-985 418v129l985 418v-152z" />
    <glyph glyph-name="equal" unicode="=" 
d="M76 434v137h985v-137h-985zM76 838v137h985v-137h-985z" />
    <glyph glyph-name="greater" unicode="&#x3e;" 
d="M76 1186l985 -418v-129l-985 -418v150l817 331l-817 332v152z" />
    <glyph glyph-name="question" unicode="?" horiz-adv-x="877" 
d="M266 102q0 49 32 82t79 33q45 0 77.5 -33.5t32.5 -81.5q0 -44 -32 -77t-78 -33q-47 0 -79 32t-32 78zM297 453q0 148 15.5 208.5t52.5 112.5t108 111q94 77 126 131t32 127q0 86 -62.5 138t-165.5 52q-139 0 -292 -59l-37 141q98 34 177 47t171 13q171 0 271 -87
t100 -229q0 -75 -19 -132.5t-57.5 -106.5t-126.5 -119q-61 -47 -93 -91t-45.5 -94.5t-13.5 -162.5h-141z" />
    <glyph glyph-name="at" unicode="@" horiz-adv-x="1827" 
d="M1706 791q0 -299 -116.5 -466t-321.5 -167q-144 0 -185 118q-122 -122 -278 -122q-129 0 -215 98t-86 264q0 268 143.5 417.5t374.5 149.5q156 0 305 -55l-106 -573l-13 -109q0 -72 78 -72q129 0 211 127t82 383q0 277 -149.5 425.5t-415.5 148.5q-344 0 -554 -235.5
t-210 -628.5q0 -287 158.5 -456t433.5 -169q198 0 432 78l41 -111q-234 -92 -473 -92q-330 0 -525.5 198.5t-195.5 544.5q0 299 112.5 523.5t315.5 344.5t467 120q321 0 505.5 -180.5t184.5 -503.5zM1174 932q-76 26 -162 26q-172 0 -269.5 -115.5t-97.5 -316.5
q0 -252 199 -252q119 0 231 113z" />
    <glyph glyph-name="A" unicode="A" horiz-adv-x="1221" 
d="M868 512h-522l-178 -512h-170l520 1454h182l523 -1454h-176zM821 655l-141 420l-70 230l-73 -228l-146 -422h430z" />
    <glyph glyph-name="B" unicode="B" horiz-adv-x="1247" 
d="M1135 403q0 -188 -118 -295.5t-347 -107.5h-467v1454h424q442 0 442 -350q0 -240 -250 -342q139 -25 227.5 -118t88.5 -241zM901 1083q0 119 -63.5 173.5t-196.5 54.5h-272v-490h227q149 0 227 75t78 187zM666 143q135 0 215 66.5t80 210.5q0 121 -82 190.5t-220 69.5
h-290v-537h297z" />
    <glyph glyph-name="C" unicode="C" horiz-adv-x="1206" 
d="M784 127q150 0 324 61l35 -143q-164 -65 -373 -65q-645 0 -645 727q0 370 156.5 569t457.5 199q187 0 367 -62l-47 -149q-150 61 -316 61q-444 0 -444 -627q0 -571 485 -571z" />
    <glyph glyph-name="D" unicode="D" horiz-adv-x="1432" 
d="M1305 776q0 -368 -188.5 -572t-516.5 -204h-397v1454h395q707 0 707 -678zM1128 770q0 539 -518 539h-241v-1164h206q553 0 553 625z" />
    <glyph glyph-name="E" unicode="E" horiz-adv-x="1096" 
d="M203 0v1454h764v-145h-598v-475h544v-146h-544v-543h598v-145h-764z" />
    <glyph glyph-name="F" unicode="F" horiz-adv-x="1036" 
d="M203 0v1454h764v-145h-598v-475h544v-146h-544v-688h-166z" />
    <glyph glyph-name="G" unicode="G" horiz-adv-x="1362" 
d="M788 129q121 0 259 39v526h165v-633q-73 -30 -200 -55.5t-213 -25.5q-336 0 -505 184t-169 545q0 252 77.5 425t222 257t347.5 84q197 0 387 -64l-49 -149q-172 63 -338 63q-239 0 -356 -155.5t-117 -469.5q0 -282 125.5 -426.5t363.5 -144.5z" />
    <glyph glyph-name="H" unicode="H" horiz-adv-x="1485" 
d="M1116 0v686h-747v-686h-166v1454h166v-620h747v620h166v-1454h-166z" />
    <glyph glyph-name="I" unicode="I" horiz-adv-x="571" 
d="M203 0v1454h166v-1454h-166z" />
    <glyph glyph-name="J" unicode="J" horiz-adv-x="827" 
d="M479 1454h168v-1089q0 -385 -338 -385q-153 0 -274 38l33 140q114 -35 225 -35q186 0 186 227v1104z" />
    <glyph glyph-name="K" unicode="K" horiz-adv-x="1214" 
d="M485 670h-116v-670h-166v1454h166v-643h120l474 643h188l-524 -706l581 -748h-200z" />
    <glyph glyph-name="L" unicode="L" horiz-adv-x="1006" 
d="M369 145h598v-145h-764v1454h166v-1309z" />
    <glyph glyph-name="M" unicode="M" horiz-adv-x="1860" 
d="M842 0l-416 1081q-66 176 -76 226l8 -236v-1071h-155v1454h243l431 -1118q38 -98 55 -186q14 75 55 196l432 1108h240v-1454h-162v1143l6 155q-10 -57 -71 -223l-420 -1075h-170z" />
    <glyph glyph-name="N" unicode="N" horiz-adv-x="1501" 
d="M1298 0h-225l-588 1032l-131 252l8 -250v-1034h-159v1454h225l582 -1022l49 -88l90 -180l-8 235v1055h157v-1454z" />
    <glyph glyph-name="O" unicode="O" horiz-adv-x="1499" 
d="M1372 735q0 -368 -159.5 -561.5t-462.5 -193.5q-306 0 -465.5 186t-159.5 545q0 364 160.5 564t464.5 200q303 0 462.5 -185.5t159.5 -554.5zM1198 739q0 586 -448 586q-215 0 -333 -156.5t-118 -457.5q0 -291 115.5 -437.5t335.5 -146.5q221 0 334.5 156.5t113.5 455.5z
" />
    <glyph glyph-name="P" unicode="P" horiz-adv-x="1182" 
d="M1075 1059q0 -203 -120.5 -326t-327.5 -123h-258v-610h-166v1454h428q444 0 444 -395zM907 1059q0 121 -61.5 186.5t-206.5 65.5h-270v-561h245q136 0 214.5 82.5t78.5 226.5z" />
    <glyph glyph-name="Q" unicode="Q" horiz-adv-x="1499" 
d="M1372 735q0 -313 -118 -501t-336 -234q346 -128 679 -182l-57 -154q-233 48 -440 123t-428 197q-267 23 -407 208.5t-140 518.5q0 360 159 562t466 202t464.5 -187t157.5 -553zM1198 739q0 292 -113 439t-335 147q-221 0 -336 -158.5t-115 -455.5q0 -287 113 -435.5
t338 -148.5q222 0 335 158t113 454z" />
    <glyph glyph-name="R" unicode="R" horiz-adv-x="1237" 
d="M1067 1073q0 -145 -74.5 -255.5t-212.5 -162.5l430 -655h-196l-389 623l-47 -2h-216v-621h-165v1454h428q225 0 333.5 -94t108.5 -287zM901 1065q0 119 -61.5 181.5t-202.5 62.5h-275v-545h248q138 0 214.5 80t76.5 221z" />
    <glyph glyph-name="S" unicode="S" horiz-adv-x="1090" 
d="M983 381q0 -184 -125 -292.5t-328 -108.5q-247 0 -438 63l43 160q205 -78 393 -78q136 0 212.5 68.5t76.5 175.5q0 100 -62.5 159.5t-273.5 169.5q-198 99 -280 197t-82 240q0 149 110.5 244.5t313.5 95.5q166 0 364 -58l-41 -151q-186 65 -325 65q-125 0 -191.5 -51
t-66.5 -141t65.5 -154.5t263.5 -167.5q224 -117 297.5 -205t73.5 -231z" />
    <glyph glyph-name="T" unicode="T" horiz-adv-x="1042" 
d="M604 1309v-1309h-164v1309h-413v145h989v-145h-412z" />
    <glyph glyph-name="U" unicode="U" horiz-adv-x="1405" 
d="M1231 442q0 -213 -142.5 -337.5t-388.5 -124.5q-243 0 -385.5 122.5t-142.5 339.5v1012h164v-1008q0 -147 101.5 -235t264.5 -88q166 0 265.5 87t99.5 236v1008h164v-1012z" />
    <glyph glyph-name="V" unicode="V" horiz-adv-x="1186" 
d="M696 0h-180l-514 1454h178l379 -1100q49 -137 49 -188q0 31 49 190l355 1098h170z" />
    <glyph glyph-name="W" unicode="W" horiz-adv-x="2009" 
d="M985 1272l-39 -176l-303 -1096h-199l-370 1454h174l264 -1075l37 -217l4 24l41 195l295 1073h196l297 -1073l43 -217l15 78l24 137l267 1075h174l-371 -1454h-205l-305 1094q-31 116 -39 178z" />
    <glyph glyph-name="X" unicode="X" horiz-adv-x="1284" 
d="M645 864l373 590h190l-467 -711l492 -743h-191l-399 623l-399 -623h-191l490 743l-463 711h190z" />
    <glyph glyph-name="Y" unicode="Y" horiz-adv-x="1167" 
d="M18 1454h187l381 -661l372 661h191l-483 -805v-649h-166v651z" />
    <glyph glyph-name="Z" unicode="Z" horiz-adv-x="1204" 
d="M1122 0h-1042v119l809 1190h-770v145h973v-115l-805 -1194h835v-145z" />
    <glyph glyph-name="bracketleft" unicode="[" horiz-adv-x="664" 
d="M190 -342v1915h396v-141h-242v-1633h242v-141h-396z" />
    <glyph glyph-name="backslash" unicode="\" horiz-adv-x="834" 
d="M31 1573h149l621 -1739h-150z" />
    <glyph glyph-name="bracketright" unicode="]" horiz-adv-x="664" 
d="M76 -342v141h241v1633h-239v141h397v-1915h-399z" />
    <glyph glyph-name="asciicircum" unicode="^" horiz-adv-x="1124" 
d="M80 588l416 985h131l417 -985h-151l-332 817l-330 -817h-151z" />
    <glyph glyph-name="underscore" unicode="_" horiz-adv-x="1196" 
d="M-4 -326v121h1204v-121h-1204z" />
    <glyph glyph-name="grave" unicode="`" horiz-adv-x="1024" 
d="M520 1247l-303 254v43l150 41l239 -303z" />
    <glyph glyph-name="a" unicode="a" horiz-adv-x="1063" 
d="M401 -20q-141 0 -226 82.5t-85 222.5q0 180 112.5 261t397.5 81h139v118q0 230 -213 230q-137 0 -290 -60l-41 127q170 64 346 64q356 0 356 -346v-506q0 -117 119 -156l-51 -131q-125 19 -203 125q-90 -53 -170 -82.5t-191 -29.5zM598 508q-192 0 -270 -47t-78 -170
q0 -88 48 -135t138 -47q160 0 305 94l-2 143v162h-141z" />
    <glyph glyph-name="b" unicode="b" horiz-adv-x="1174" 
d="M1059 555q0 -281 -125 -429.5t-342 -148.5q-203 0 -418 66v1509l158 21v-574q153 107 321 107q215 0 310.5 -136t95.5 -415zM893 555q0 217 -61.5 316.5t-213.5 99.5q-147 0 -286 -105v-708q112 -45 262 -45q133 0 216 108.5t83 333.5z" />
    <glyph glyph-name="c" unicode="c" horiz-adv-x="973" 
d="M829 922q-145 45 -247 45q-144 0 -223.5 -109.5t-79.5 -314.5q0 -226 81.5 -326t245.5 -100q135 0 275 53l30 -135q-151 -58 -311 -58q-248 0 -366.5 141.5t-118.5 424.5q0 264 121.5 413.5t336.5 149.5q148 0 293 -47z" />
    <glyph glyph-name="d" unicode="d" horiz-adv-x="1174" 
d="M115 528q0 283 114.5 431.5t319.5 148.5q86 0 150.5 -18.5t142.5 -63.5v526l157 21v-1573h-125l-24 92q-158 -112 -328 -112q-217 0 -312 134t-95 414zM281 530q0 -221 61 -318t213 -97q150 0 287 108v664q-92 53 -141.5 69.5t-125.5 16.5q-129 0 -211.5 -108.5
t-82.5 -334.5z" />
    <glyph glyph-name="e" unicode="e" horiz-adv-x="1081" 
d="M965 522h-684q0 -205 78.5 -308t248.5 -103q160 0 334 73l33 -131q-187 -76 -387 -76q-473 0 -473 549q0 283 119.5 431.5t336.5 148.5q213 0 303.5 -127t90.5 -369v-88zM805 643q0 162 -50 248t-184 86q-262 0 -290 -334h524z" />
    <glyph glyph-name="f" unicode="f" horiz-adv-x="717" 
d="M229 1083v179q0 159 68 235t213 76q135 0 264 -35l-35 -131q-96 29 -200 29q-86 0 -118 -49.5t-32 -141.5v-160h322v-133h-322v-952h-160v952h-182v103z" />
    <glyph glyph-name="g" unicode="g" horiz-adv-x="1116" 
d="M1040 -86q0 -177 -151.5 -283t-401.5 -106q-428 0 -428 287q0 90 57 166.5t181 154.5q-115 51 -115 148q0 38 21.5 70t91.5 81q-83 46 -127.5 129t-44.5 189q0 164 105.5 260t287.5 96q114 0 199 -35q78 3 164.5 19.5t146.5 37.5l31 -127q-43 -16 -106 -27t-124 -11
q80 -80 80 -220q0 -163 -107 -261.5t-280 -98.5q-54 0 -131 10q-67 -44 -67 -94q0 -39 63 -57t250 -31q217 -14 311 -82t94 -215zM506 -350q170 0 275.5 70.5t105.5 177.5q0 82 -59 117t-236 48l-189 21q-92 -60 -142 -123t-50 -141q0 -79 73 -124.5t222 -45.5zM752 745
q0 113 -62 176.5t-172 63.5q-112 0 -175.5 -64t-63.5 -173q0 -118 62 -181t177 -63q112 0 173 63t61 178z" />
    <glyph glyph-name="h" unicode="h" horiz-adv-x="1178" 
d="M860 0v733q0 238 -213 238q-158 0 -315 -105v-866h-158v1552l158 21v-578q82 52 161.5 81.5t196.5 29.5q152 0 240 -91t88 -257v-758h-158z" />
    <glyph glyph-name="i" unicode="i" horiz-adv-x="506" 
d="M174 0v1085h158v-1085h-158zM154 1417q0 43 29.5 74t70.5 31q38 0 68 -30.5t30 -74.5q0 -43 -29.5 -72.5t-68.5 -29.5q-41 0 -70.5 29.5t-29.5 72.5z" />
    <glyph glyph-name="j" unicode="j" horiz-adv-x="506" 
d="M-53 -360q129 67 178 145t49 203v1097h158v-1130q0 -306 -309 -428zM152 1417q0 43 29.5 74t70.5 31t70.5 -31t29.5 -74t-29.5 -72.5t-70.5 -29.5t-70.5 29.5t-29.5 72.5z" />
    <glyph glyph-name="k" unicode="k" horiz-adv-x="1038" 
d="M836 0l-400 498h-104v-498h-158v1552l158 21v-950h90l369 462h186l-416 -507l465 -578h-190z" />
    <glyph glyph-name="l" unicode="l" horiz-adv-x="535" 
d="M172 1552l158 21v-1272q0 -80 37 -123.5t135 -66.5l-31 -125q-299 40 -299 290v1276z" />
    <glyph glyph-name="m" unicode="m" horiz-adv-x="1823" 
d="M1663 0h-158v733q0 238 -194 238q-168 0 -324 -113q10 -61 10 -100v-758h-157v733q0 238 -195 238q-170 0 -313 -105v-866h-158v1085h129l23 -90q166 111 354 111q184 0 266 -137q107 69 200 103t204 34q145 0 229 -91t84 -257v-758z" />
    <glyph glyph-name="n" unicode="n" horiz-adv-x="1178" 
d="M1018 0h-158v733q0 238 -209 238q-162 0 -319 -105v-866h-158v1085h129l23 -90q84 52 165.5 81.5t198.5 29.5q152 0 240 -91t88 -257v-758z" />
    <glyph glyph-name="o" unicode="o" horiz-adv-x="1180" 
d="M590 117q166 0 236.5 110.5t70.5 315.5t-70.5 315.5t-236.5 110.5t-236.5 -110.5t-70.5 -315.5t70.5 -315.5t236.5 -110.5zM590 -20q-236 0 -355.5 144t-119.5 417q0 274 119.5 419.5t355.5 145.5q235 0 355 -145.5t120 -419.5q0 -273 -120 -417t-355 -144z" />
    <glyph glyph-name="p" unicode="p" horiz-adv-x="1174" 
d="M1059 555q0 -281 -125 -427t-342 -146q-135 0 -260 28v-465l-158 -20v1560h129l21 -92q155 113 329 113q215 0 310.5 -136t95.5 -415zM893 555q0 217 -61.5 316.5t-213.5 99.5q-151 0 -286 -107v-704q108 -43 262 -43q133 0 216 106.5t83 331.5z" />
    <glyph glyph-name="q" unicode="q" horiz-adv-x="1174" 
d="M115 528q0 283 115.5 430.5t320.5 147.5q94 0 160.5 -25.5t140.5 -72.5l18 77h129v-1540l-155 -20v567q-60 -41 -136.5 -76.5t-185.5 -35.5q-217 0 -312 134t-95 414zM281 530q0 -221 61 -318t213 -97q150 0 287 108v660q-105 61 -157 75.5t-110 14.5
q-129 0 -211.5 -108.5t-82.5 -334.5z" />
    <glyph glyph-name="r" unicode="r" horiz-adv-x="731" 
d="M174 1085h127l18 -133q60 78 121.5 116t153.5 38q63 0 113 -12l-23 -150q-47 12 -115 12q-73 0 -128.5 -35.5t-108.5 -107.5v-813h-158v1085z" />
    <glyph glyph-name="s" unicode="s" horiz-adv-x="874" 
d="M782 283q0 -144 -95 -223.5t-275 -79.5q-195 0 -332 47l33 139q153 -53 299 -53q215 0 215 155q0 76 -47.5 123t-186.5 113q-162 67 -227.5 143t-65.5 182q0 277 342 277q150 0 281 -39l-31 -135q-151 41 -252 41q-190 0 -190 -133q0 -66 47 -109t195 -110
q157 -70 223.5 -144t66.5 -194z" />
    <glyph glyph-name="t" unicode="t" horiz-adv-x="762" 
d="M383 952v-688q0 -149 133 -149q90 0 197 26l24 -125q-114 -36 -260 -36q-252 0 -252 256v716h-170v105l170 28v234l158 33v-267h324v-133h-324z" />
    <glyph glyph-name="u" unicode="u" horiz-adv-x="1178" 
d="M160 1085h157v-733q0 -237 209 -237q166 0 320 104v866h158v-1083h-130l-22 88q-90 -59 -171 -84.5t-194 -25.5q-151 0 -239 91t-88 257v757z" />
    <glyph glyph-name="v" unicode="v" horiz-adv-x="985" 
d="M406 0l-406 1085h170l324 -901l321 901h170l-405 -1085h-174z" />
    <glyph glyph-name="w" unicode="w" horiz-adv-x="1636" 
d="M399 0l-364 1085h168l282 -897l256 897h156l256 -897l281 897h170l-367 -1085h-176l-244 854l-242 -854h-176z" />
    <glyph glyph-name="x" unicode="x" horiz-adv-x="987" 
d="M586 565l381 -565h-179l-296 463l-297 -463h-177l379 565l-344 520h174l265 -413l264 413h174z" />
    <glyph glyph-name="y" unicode="y" horiz-adv-x="983" 
d="M139 -365q109 78 167.5 153t111.5 210l-418 1087h170l328 -888l317 888h170l-432 -1157q-100 -274 -313 -401z" />
    <glyph glyph-name="z" unicode="z" horiz-adv-x="952" 
d="M78 0v100l567 852h-536v133h743v-100l-569 -852h600v-133h-805z" />
    <glyph glyph-name="braceleft" unicode="{" horiz-adv-x="743" 
d="M432 -4q0 -92 53.5 -144.5t194.5 -54.5v-141q-205 2 -302 73.5t-97 223.5v422q0 98 -65.5 139t-190.5 41v121q125 0 190.5 41t65.5 143v414q0 295 401 299v-137q-141 -2 -195.5 -55.5t-54.5 -145.5v-379q0 -100 -33.5 -158.5t-117.5 -76.5v-13q84 -18 117.5 -76.5
t33.5 -158.5v-377z" />
    <glyph glyph-name="bar" unicode="|" horiz-adv-x="1186" 
d="M659 -475h-137v2048h137v-2048z" />
    <glyph glyph-name="braceright" unicode="}" horiz-adv-x="743" 
d="M311 373q0 100 34 158.5t118 76.5v13q-84 18 -118 76.5t-34 158.5v379q0 92 -54 145.5t-196 55.5v137q402 -4 402 -299v-414q0 -102 65.5 -143t190.5 -41v-121q-125 0 -190.5 -41t-65.5 -139v-422q0 -152 -98.5 -223.5t-303.5 -73.5v141q142 2 196 54.5t54 144.5v377z
" />
    <glyph glyph-name="asciitilde" unicode="~" 
d="M803 578q-78 0 -234 53q-157 53 -237 53q-123 0 -256 -109v146q53 47 123.5 74.5t132.5 27.5q88 0 241 -53q152 -53 230 -53q123 0 258 106v-143q-53 -47 -124 -74.5t-134 -27.5z" />
    <glyph glyph-name="uni00A0" unicode="&#xa0;" horiz-adv-x="506" 
 />
    <glyph glyph-name="exclamdown" unicode="&#xa1;" horiz-adv-x="592" 
d="M389 -358h-184l24 1001h133zM186 993q0 45 32 79t79 34q46 0 77.5 -33t31.5 -80q0 -48 -32.5 -81t-76.5 -33q-46 0 -78.5 34t-32.5 80z" />
    <glyph glyph-name="cent" unicode="&#xa2;" 
d="M899 1116q-135 47 -248 47q-141 0 -221 -109.5t-80 -314.5q0 -227 82 -326.5t246 -99.5q141 0 274 52l31 -134q-106 -45 -256 -57v-194h-119v194q-223 14 -322.5 155.5t-99.5 409.5q0 246 108.5 396.5t313.5 162.5v177h119v-179q98 -6 211 -41z" />
    <glyph glyph-name="sterling" unicode="&#xa3;" 
d="M692 1475q150 0 348 -58l-39 -141q-165 57 -305 57q-121 0 -165 -59.5t-44 -208.5v-244h369v-141h-369v-326q0 -143 -73 -213h671v-141h-962v141h98q105 43 105 211v328h-203v121l203 24v248q0 213 79.5 307.5t286.5 94.5z" />
    <glyph glyph-name="currency" unicode="&#xa4;" 
d="M909 805q0 -103 -59 -187l180 -180l-88 -88l-178 176q-94 -63 -197 -63q-108 0 -196 61l-174 -174l-91 88l177 176q-60 84 -60 191q0 104 62 192l-179 179l91 90l176 -179q88 62 194 62q105 0 195 -64l180 181l88 -90l-180 -181q59 -84 59 -190zM784 805
q0 90 -65.5 154.5t-151.5 64.5q-90 0 -154.5 -65.5t-64.5 -153.5t64.5 -152.5t154.5 -64.5q88 0 152.5 64.5t64.5 152.5z" />
    <glyph glyph-name="yen" unicode="&#xa5;" 
d="M113 711h325l-395 743h174l311 -614l41 -99l41 101l308 612h176l-394 -743h326v-117h-377v-170h377v-117h-377v-307h-160v307h-376v117h376v170h-376v117z" />
    <glyph glyph-name="brokenbar" unicode="&#xa6;" horiz-adv-x="1184" 
d="M664 770h-142v926h142v-926zM664 -547h-142v926h142v-926z" />
    <glyph glyph-name="section" unicode="&#xa7;" horiz-adv-x="1004" 
d="M834 143q0 -137 -96.5 -217t-272.5 -80q-172 0 -324 48l33 129q148 -52 289 -52q110 0 165.5 45t55.5 123q0 74 -53 128.5t-185 117.5q-186 90 -241 158.5t-55 165.5q0 84 54 145t152 88q-184 94 -184 266q0 123 85 195t253 72q143 0 281 -37l-31 -125q-146 39 -252 39
q-189 0 -189 -133q0 -52 19.5 -83.5t73 -67.5t147.5 -77q170 -76 232.5 -145.5t62.5 -171.5q0 -96 -52 -162t-140 -96q96 -60 134 -120t38 -153zM711 657q0 66 -43 110t-174 103q-201 -20 -201 -157q0 -62 51 -110t172 -105q94 8 144.5 52t50.5 107z" />
    <glyph glyph-name="dieresis" unicode="&#xa8;" horiz-adv-x="1024" 
d="M213 1395q0 55 29 79.5t69 24.5q42 0 71.5 -24.5t29.5 -79.5q0 -54 -29.5 -80.5t-71.5 -26.5q-40 0 -69 26.5t-29 80.5zM612 1395q0 55 28.5 79.5t70.5 24.5q45 0 72.5 -27t27.5 -77q0 -54 -30 -80.5t-70 -26.5q-42 0 -70.5 26.5t-28.5 80.5z" />
    <glyph glyph-name="copyright" unicode="&#xa9;" horiz-adv-x="1774" 
d="M139 727q0 199 100.5 373t274.5 274.5t373 100.5q198 0 372.5 -100.5t274.5 -274.5t100 -373t-100 -373t-274.5 -274t-372.5 -100q-199 0 -373 100t-274.5 274t-100.5 373zM252 727q0 -262 185.5 -448.5t449.5 -186.5q262 0 448.5 185.5t186.5 449.5q0 262 -185.5 448.5
t-449.5 186.5q-262 0 -448.5 -185.5t-186.5 -449.5zM1110 1028q-115 35 -209 35q-127 0 -196.5 -85t-69.5 -237q0 -321 280 -321q125 0 242 41l29 -113q-133 -53 -275 -53q-419 0 -419 446q0 201 108.5 323t292.5 122q121 0 252 -39z" />
    <glyph glyph-name="ordfeminine" unicode="&#xaa;" horiz-adv-x="874" 
d="M340 676q-117 0 -183.5 59.5t-66.5 157.5q0 143 102.5 196.5t305.5 53.5h100v74q0 151 -158 151q-112 0 -233 -45l-35 107q125 45 279 45q288 0 288 -246v-350q0 -86 95 -111l-41 -100q-109 12 -172 96q-68 -41 -130.5 -64.5t-150.5 -23.5zM498 1042q-142 0 -204.5 -30.5
t-62.5 -114.5q0 -59 46.5 -88t107.5 -29q59 0 104.5 13.5t112.5 54.5l-4 156v38h-100z" />
    <glyph glyph-name="guillemotleft" unicode="&#xab;" horiz-adv-x="1038" 
d="M598 115h-172l-356 409v19l362 411h170l-366 -419zM993 115h-172l-356 409v19l362 411h170l-366 -419z" />
    <glyph glyph-name="logicalnot" unicode="&#xac;" 
d="M1061 262h-137v373h-848v137h985v-510z" />
    <glyph glyph-name="uni00AD" unicode="&#xad;" horiz-adv-x="774" 
d="M125 483v140h524v-140h-524z" />
    <glyph glyph-name="registered" unicode="&#xae;" horiz-adv-x="1184" 
d="M96 977q0 207 145.5 352.5t350.5 145.5q207 0 352.5 -145.5t145.5 -352.5q0 -205 -145.5 -350.5t-352.5 -145.5q-205 0 -350.5 145.5t-145.5 350.5zM193 977q0 -166 118.5 -281.5t280.5 -115.5q166 0 282.5 115.5t116.5 281.5t-115.5 282.5t-283.5 116.5
q-162 0 -280.5 -116.5t-118.5 -282.5zM780 1110q0 -55 -31.5 -96t-93.5 -51l162 -232h-100l-144 211h-63v-211h-90v508h188q172 0 172 -129zM688 1108q0 57 -108 57h-70v-149h49q68 0 98.5 20.5t30.5 71.5z" />
    <glyph glyph-name="macron" unicode="&#xaf;" horiz-adv-x="1024" 
d="M207 1303v116h608v-116h-608z" />
    <glyph glyph-name="degree" unicode="&#xb0;" horiz-adv-x="621" 
d="M53 1217q0 110 76 184t180 74q107 0 182.5 -76t75.5 -182q0 -105 -73.5 -180.5t-184.5 -75.5q-108 0 -182 72.5t-74 183.5zM162 1217q0 -62 42 -105t105 -43q64 0 108 43t44 105q0 65 -44 108t-108 43q-63 0 -105 -43t-42 -108z" />
    <glyph glyph-name="plusminus" unicode="&#xb1;" 
d="M635 668v-418h-137v418h-422v137h422v420h137v-420h426v-137h-426zM1061 137v-137h-985v137h985z" />
    <glyph glyph-name="uni00B2" unicode="&#xb2;" horiz-adv-x="694" 
d="M326 1475q120 0 184.5 -43.5t64.5 -128.5q0 -68 -40.5 -122t-143.5 -116q-94 -59 -132 -91t-38 -61v-6h391v-102h-524v59q0 49 18 88.5t55.5 75.5t133.5 96q78 46 113.5 83t35.5 81q0 41 -32 62.5t-90 21.5q-86 0 -166 -37l-33 101q98 39 203 39z" />
    <glyph glyph-name="uni00B3" unicode="&#xb3;" horiz-adv-x="694" 
d="M424 1294q0 78 -127 78q-72 0 -156 -35l-32 103q84 35 200 35q246 0 246 -156q0 -125 -145 -160q182 -26 182 -164q0 -92 -68.5 -146t-212.5 -54q-92 0 -221 30l23 103q96 -31 188 -31q78 0 118 30.5t40 76.5q0 100 -174 100h-74v98h78q67 0 101 26.5t34 65.5z" />
    <glyph glyph-name="acute" unicode="&#xb4;" horiz-adv-x="1024" 
d="M397 1282l240 303l151 -41v-43l-303 -254z" />
    <glyph glyph-name="mu" unicode="&#xb5;" horiz-adv-x="1178" 
d="M874 135q-90 -90 -163.5 -122.5t-165.5 -32.5q-66 0 -127.5 26.5t-95.5 77.5v-539l-158 -20v1560h158v-714q0 -117 64.5 -186.5t174.5 -69.5q141 0 289 133v837h158v-784q0 -92 27.5 -137t90.5 -64l-61 -120q-141 14 -191 155z" />
    <glyph glyph-name="paragraph" unicode="&#xb6;" horiz-adv-x="1192" 
d="M1012 -295h-135v1626h-213v-1626h-138v844q-211 0 -312 108.5t-101 346.5q0 229 102 339.5t322 110.5h475v-1749z" />
    <glyph glyph-name="periodcentered" unicode="&#xb7;" horiz-adv-x="434" 
d="M106 573q0 47 32 81t79 34q44 0 76.5 -33t32.5 -82q0 -48 -32 -80t-77 -32q-47 0 -79 33t-32 79z" />
    <glyph glyph-name="cedilla" unicode="&#xb8;" horiz-adv-x="1024" 
d="M715 -272q0 -174 -197 -174q-82 0 -145 22l22 94q66 -16 115 -16q86 0 86 74q0 43 -32 64.5t-158 45.5l106 162h119l-68 -102q152 -35 152 -170z" />
    <glyph glyph-name="uni00B9" unicode="&#xb9;" horiz-adv-x="694" 
d="M109 1403l266 65h76v-561h176v-102h-498v102h197v455l-193 -49z" />
    <glyph glyph-name="ordmasculine" unicode="&#xba;" horiz-adv-x="936" 
d="M467 786q233 0 233 287q0 289 -233 289q-231 0 -231 -289q0 -287 231 -287zM467 1473q188 0 285.5 -103.5t97.5 -298.5q0 -192 -97.5 -295.5t-285.5 -103.5q-186 0 -283.5 103.5t-97.5 295.5q0 195 97.5 298.5t283.5 103.5z" />
    <glyph glyph-name="guillemotright" unicode="&#xbb;" horiz-adv-x="1038" 
d="M436 954h170l363 -411v-19l-357 -409h-172l363 417zM41 954h170l362 -411v-19l-356 -409h-170l363 417z" />
    <glyph glyph-name="onequarter" unicode="&#xbc;" horiz-adv-x="1389" 
d="M1182 623l-334 -392h238v185h127v-185h121v-98h-121v-133h-127v133h-355v115l357 432zM65 1403l266 65h76v-561h176v-102h-498v102h197v455l-193 -49zM410 0h-131l702 1454h129z" />
    <glyph glyph-name="onehalf" unicode="&#xbd;" horiz-adv-x="1389" 
d="M65 1403l266 65h76v-561h176v-102h-498v102h197v455l-193 -49zM410 0h-131l702 1454h129zM1033 670q122 0 186 -45t64 -129q0 -67 -40.5 -120.5t-144.5 -117.5q-87 -53 -128.5 -87t-41.5 -65v-4h391v-102h-524v59q0 75 45 132t162 126q78 48 113.5 84t35.5 80
q0 84 -122 84q-91 0 -166 -35l-33 101q114 39 203 39z" />
    <glyph glyph-name="threequarters" unicode="&#xbe;" horiz-adv-x="1389" 
d="M1182 623l-334 -392h238v185h127v-185h121v-98h-121v-133h-127v133h-355v115l357 432zM421 1294q0 78 -127 78q-72 0 -156 -35l-32 103q84 35 200 35q246 0 246 -156q0 -125 -145 -160q182 -26 182 -164q0 -92 -68.5 -146t-212.5 -54q-92 0 -221 30l23 103
q96 -31 188 -31q78 0 118 30.5t40 76.5q0 100 -174 100h-74v98h78q67 0 101 26.5t34 65.5zM410 0h-131l702 1454h129z" />
    <glyph glyph-name="questiondown" unicode="&#xbf;" horiz-adv-x="877" 
d="M616 993q0 -48 -32.5 -81t-75.5 -33q-44 0 -77.5 34t-33.5 80t32.5 79.5t78.5 33.5q45 0 76.5 -32.5t31.5 -80.5zM588 643q0 -148 -15.5 -209t-53 -114t-107.5 -109q-98 -81 -128 -134.5t-30 -123.5q0 -84 60 -136.5t165 -52.5q133 0 293 60l39 -143q-98 -34 -178.5 -47
t-169.5 -13q-171 0 -271 87t-100 229q0 74 18.5 131t55 105t129.5 124q59 46 90.5 88t45 91t13.5 167h144z" />
    <glyph glyph-name="Agrave" unicode="&#xc0;" horiz-adv-x="1221" 
d="M868 512h-522l-178 -512h-170l520 1454h182l523 -1454h-176zM821 655l-141 420l-70 230l-73 -228l-146 -422h430zM633 1569l-321 196v43l149 41l254 -245z" />
    <glyph glyph-name="Aacute" unicode="&#xc1;" horiz-adv-x="1221" 
d="M868 512h-522l-178 -512h-170l520 1454h182l523 -1454h-176zM821 655l-141 420l-70 230l-73 -228l-146 -422h430zM477 1604l256 245l149 -41v-43l-323 -196z" />
    <glyph glyph-name="Acircumflex" unicode="&#xc2;" horiz-adv-x="1221" 
d="M868 512h-522l-178 -512h-170l520 1454h182l523 -1454h-176zM821 655l-141 420l-70 230l-73 -228l-146 -422h430zM827 1569l-219 170l-217 -170l-86 35l237 245h134l239 -245z" />
    <glyph glyph-name="Atilde" unicode="&#xc3;" horiz-adv-x="1221" 
d="M868 512h-522l-178 -512h-170l520 1454h182l523 -1454h-176zM821 655l-141 420l-70 230l-73 -228l-146 -422h430zM751 1724q74 0 158 99l55 -101q-35 -43 -91 -78.5t-118 -35.5q-61 0 -149 45q-88 43 -133 43q-76 0 -152 -101l-63 101q94 119 211 119q47 0 147 -46
q102 -45 135 -45z" />
    <glyph glyph-name="Adieresis" unicode="&#xc4;" horiz-adv-x="1221" 
d="M868 512h-522l-178 -512h-170l520 1454h182l523 -1454h-176zM821 655l-141 420l-70 230l-73 -228l-146 -422h430zM307 1704q0 50 27 77t71 27q46 0 73.5 -26.5t27.5 -77.5q0 -54 -29.5 -81.5t-71.5 -27.5q-43 0 -70.5 29.5t-27.5 79.5zM712 1704q0 56 29.5 80t71.5 24
q40 0 69 -24.5t29 -79.5q0 -54 -29 -81.5t-69 -27.5q-42 0 -71.5 27.5t-29.5 81.5z" />
    <glyph glyph-name="Aring" unicode="&#xc5;" horiz-adv-x="1221" 
d="M868 512h-522l-178 -512h-170l520 1454h182l523 -1454h-176zM821 655l-141 420l-70 230l-73 -228l-146 -422h430zM422 1553q0 78 53 133.5t133 55.5t134 -54.5t54 -134.5q0 -78 -53 -132t-135 -54q-80 0 -133 54t-53 132zM514 1553q0 -41 26.5 -67.5t67.5 -26.5
t67.5 26.5t26.5 67.5t-26.5 67.5t-67.5 26.5t-67.5 -26.5t-26.5 -67.5z" />
    <glyph glyph-name="AE" unicode="&#xc6;" horiz-adv-x="1710" 
d="M817 0v512h-389l-260 -512h-172l737 1454h848v-145h-598v-475h545v-146h-545v-543h598v-145h-764zM817 655v676l-69 -170l-248 -506h317z" />
    <glyph glyph-name="Ccedilla" unicode="&#xc7;" horiz-adv-x="1206" 
d="M784 127q150 0 324 61l35 -143q-164 -65 -373 -65q-645 0 -645 727q0 370 156.5 569t457.5 199q187 0 367 -62l-47 -149q-150 61 -316 61q-444 0 -444 -627q0 -571 485 -571zM891 -272q0 -174 -197 -174q-82 0 -145 22l22 94q66 -16 115 -16q86 0 86 74q0 43 -32 64.5
t-158 45.5l106 162h119l-68 -102q152 -35 152 -170z" />
    <glyph glyph-name="Egrave" unicode="&#xc8;" horiz-adv-x="1096" 
d="M203 0v1454h764v-145h-598v-475h544v-146h-544v-543h598v-145h-764zM606 1569l-321 196v43l149 41l254 -245z" />
    <glyph glyph-name="Eacute" unicode="&#xc9;" horiz-adv-x="1096" 
d="M203 0v1454h764v-145h-598v-475h544v-146h-544v-543h598v-145h-764zM438 1604l256 245l149 -41v-43l-323 -196z" />
    <glyph glyph-name="Ecircumflex" unicode="&#xca;" horiz-adv-x="1096" 
d="M203 0v1454h764v-145h-598v-475h544v-146h-544v-543h598v-145h-764zM790 1569l-219 170l-217 -170l-86 35l237 245h134l239 -245z" />
    <glyph glyph-name="Edieresis" unicode="&#xcb;" horiz-adv-x="1096" 
d="M203 0v1454h764v-145h-598v-475h544v-146h-544v-543h598v-145h-764zM289 1704q0 50 27 77t71 27q46 0 73.5 -26.5t27.5 -77.5q0 -54 -29.5 -81.5t-71.5 -27.5q-43 0 -70.5 29.5t-27.5 79.5zM694 1704q0 56 29.5 80t71.5 24q40 0 69 -24.5t29 -79.5q0 -54 -29 -81.5
t-69 -27.5q-42 0 -71.5 27.5t-29.5 81.5z" />
    <glyph glyph-name="Igrave" unicode="&#xcc;" horiz-adv-x="571" 
d="M203 0v1454h166v-1454h-166zM316 1569l-321 196v43l149 41l254 -245z" />
    <glyph glyph-name="Iacute" unicode="&#xcd;" horiz-adv-x="571" 
d="M203 0v1454h166v-1454h-166zM173 1604l256 245l149 -41v-43l-323 -196z" />
    <glyph glyph-name="Icircumflex" unicode="&#xce;" horiz-adv-x="571" 
d="M203 0v1454h166v-1454h-166zM507 1569l-219 170l-217 -170l-86 35l237 245h134l239 -245z" />
    <glyph glyph-name="Idieresis" unicode="&#xcf;" horiz-adv-x="571" 
d="M203 0v1454h166v-1454h-166zM-13 1704q0 50 27 77t71 27q46 0 73.5 -26.5t27.5 -77.5q0 -54 -29.5 -81.5t-71.5 -27.5q-43 0 -70.5 29.5t-27.5 79.5zM392 1704q0 56 29.5 80t71.5 24q40 0 69 -24.5t29 -79.5q0 -54 -29 -81.5t-69 -27.5q-42 0 -71.5 27.5t-29.5 81.5z" />
    <glyph glyph-name="Eth" unicode="&#xd0;" horiz-adv-x="1432" 
d="M1305 776q0 -368 -188.5 -572t-516.5 -204h-397v684h-191v143h191v627h395q707 0 707 -678zM737 684h-368v-539h206q553 0 553 625q0 539 -518 539h-241v-482h368v-143z" />
    <glyph glyph-name="Ntilde" unicode="&#xd1;" horiz-adv-x="1501" 
d="M1298 0h-225l-588 1032l-131 252l8 -250v-1034h-159v1454h225l582 -1022l49 -88l90 -180l-8 235v1055h157v-1454zM901 1724q74 0 158 99l55 -101q-35 -43 -91 -78.5t-118 -35.5q-61 0 -149 45q-88 43 -133 43q-76 0 -152 -101l-63 101q94 119 211 119q47 0 147 -46
q102 -45 135 -45z" />
    <glyph glyph-name="Ograve" unicode="&#xd2;" horiz-adv-x="1499" 
d="M1372 735q0 -368 -159.5 -561.5t-462.5 -193.5q-306 0 -465.5 186t-159.5 545q0 364 160.5 564t464.5 200q303 0 462.5 -185.5t159.5 -554.5zM1198 739q0 586 -448 586q-215 0 -333 -156.5t-118 -457.5q0 -291 115.5 -437.5t335.5 -146.5q221 0 334.5 156.5t113.5 455.5z
M792 1569l-321 196v43l149 41l254 -245z" />
    <glyph glyph-name="Oacute" unicode="&#xd3;" horiz-adv-x="1499" 
d="M1372 735q0 -368 -159.5 -561.5t-462.5 -193.5q-306 0 -465.5 186t-159.5 545q0 364 160.5 564t464.5 200q303 0 462.5 -185.5t159.5 -554.5zM1198 739q0 586 -448 586q-215 0 -333 -156.5t-118 -457.5q0 -291 115.5 -437.5t335.5 -146.5q221 0 334.5 156.5t113.5 455.5z
M633 1604l256 245l149 -41v-43l-323 -196z" />
    <glyph glyph-name="Ocircumflex" unicode="&#xd4;" horiz-adv-x="1499" 
d="M1372 735q0 -368 -159.5 -561.5t-462.5 -193.5q-306 0 -465.5 186t-159.5 545q0 364 160.5 564t464.5 200q303 0 462.5 -185.5t159.5 -554.5zM1198 739q0 586 -448 586q-215 0 -333 -156.5t-118 -457.5q0 -291 115.5 -437.5t335.5 -146.5q221 0 334.5 156.5t113.5 455.5z
M983 1569l-219 170l-217 -170l-86 35l237 245h134l239 -245z" />
    <glyph glyph-name="Otilde" unicode="&#xd5;" horiz-adv-x="1499" 
d="M1372 735q0 -368 -159.5 -561.5t-462.5 -193.5q-306 0 -465.5 186t-159.5 545q0 364 160.5 564t464.5 200q303 0 462.5 -185.5t159.5 -554.5zM1198 739q0 586 -448 586q-215 0 -333 -156.5t-118 -457.5q0 -291 115.5 -437.5t335.5 -146.5q221 0 334.5 156.5t113.5 455.5z
M903 1724q74 0 158 99l55 -101q-35 -43 -91 -78.5t-118 -35.5q-61 0 -149 45q-88 43 -133 43q-76 0 -152 -101l-63 101q94 119 211 119q47 0 147 -46q102 -45 135 -45z" />
    <glyph glyph-name="Odieresis" unicode="&#xd6;" horiz-adv-x="1499" 
d="M1372 735q0 -368 -159.5 -561.5t-462.5 -193.5q-306 0 -465.5 186t-159.5 545q0 364 160.5 564t464.5 200q303 0 462.5 -185.5t159.5 -554.5zM1198 739q0 586 -448 586q-215 0 -333 -156.5t-118 -457.5q0 -291 115.5 -437.5t335.5 -146.5q221 0 334.5 156.5t113.5 455.5z
M469 1704q0 50 27 77t71 27q46 0 73.5 -26.5t27.5 -77.5q0 -54 -29.5 -81.5t-71.5 -27.5q-43 0 -70.5 29.5t-27.5 79.5zM874 1704q0 56 29.5 80t71.5 24q40 0 69 -24.5t29 -79.5q0 -54 -29 -81.5t-69 -27.5q-42 0 -71.5 27.5t-29.5 81.5z" />
    <glyph glyph-name="multiply" unicode="&#xd7;" 
d="M471 705l-383 382l98 97l381 -383l383 383l99 -97l-385 -382l385 -383l-97 -97l-385 383l-383 -383l-96 97z" />
    <glyph glyph-name="Oslash" unicode="&#xd8;" horiz-adv-x="1499" 
d="M72 -53l190 248q-137 186 -137 516q0 364 160.5 564t464.5 200q249 0 403 -127l123 159h156l-195 -252q135 -188 135 -520q0 -368 -159.5 -561.5t-462.5 -193.5q-252 0 -404 124l-121 -157h-153zM299 711q0 -226 78 -369l674 875q-113 108 -301 108q-215 0 -333 -156.5
t-118 -457.5zM1198 739q0 228 -76 371l-673 -877q110 -106 301 -106q221 0 334.5 156.5t113.5 455.5z" />
    <glyph glyph-name="Ugrave" unicode="&#xd9;" horiz-adv-x="1405" 
d="M1231 442q0 -213 -142.5 -337.5t-388.5 -124.5q-243 0 -385.5 122.5t-142.5 339.5v1012h164v-1008q0 -147 101.5 -235t264.5 -88q166 0 265.5 87t99.5 236v1008h164v-1012zM752 1569l-321 196v43l149 41l254 -245z" />
    <glyph glyph-name="Uacute" unicode="&#xda;" horiz-adv-x="1405" 
d="M1231 442q0 -213 -142.5 -337.5t-388.5 -124.5q-243 0 -385.5 122.5t-142.5 339.5v1012h164v-1008q0 -147 101.5 -235t264.5 -88q166 0 265.5 87t99.5 236v1008h164v-1012zM569 1604l256 245l149 -41v-43l-323 -196z" />
    <glyph glyph-name="Ucircumflex" unicode="&#xdb;" horiz-adv-x="1405" 
d="M1231 442q0 -213 -142.5 -337.5t-388.5 -124.5q-243 0 -385.5 122.5t-142.5 339.5v1012h164v-1008q0 -147 101.5 -235t264.5 -88q166 0 265.5 87t99.5 236v1008h164v-1012zM922 1569l-219 170l-217 -170l-86 35l237 245h134l239 -245z" />
    <glyph glyph-name="Udieresis" unicode="&#xdc;" horiz-adv-x="1405" 
d="M1231 442q0 -213 -142.5 -337.5t-388.5 -124.5q-243 0 -385.5 122.5t-142.5 339.5v1012h164v-1008q0 -147 101.5 -235t264.5 -88q166 0 265.5 87t99.5 236v1008h164v-1012zM406 1704q0 50 27 77t71 27q46 0 73.5 -26.5t27.5 -77.5q0 -54 -29.5 -81.5t-71.5 -27.5
q-43 0 -70.5 29.5t-27.5 79.5zM811 1704q0 56 29.5 80t71.5 24q40 0 69 -24.5t29 -79.5q0 -54 -29 -81.5t-69 -27.5q-42 0 -71.5 27.5t-29.5 81.5z" />
    <glyph glyph-name="Yacute" unicode="&#xdd;" horiz-adv-x="1167" 
d="M18 1454h187l381 -661l372 661h191l-483 -805v-649h-166v651zM467 1604l256 245l149 -41v-43l-323 -196z" />
    <glyph glyph-name="Thorn" unicode="&#xde;" horiz-adv-x="1182" 
d="M1075 776q0 -207 -124 -328.5t-324 -121.5h-258v-326h-166v1454h166v-283h262q444 0 444 -395zM907 776q0 121 -61.5 186.5t-206.5 65.5h-270v-561h245q136 0 214.5 83t78.5 226z" />
    <glyph glyph-name="germandbls" unicode="&#xdf;" horiz-adv-x="1237" 
d="M543 827q0 62 24.5 112t78.5 93t61 47q51 39 90 80t39 109q0 170 -240 170q-143 0 -203.5 -70t-60.5 -199v-1169h-158v1200q0 176 108.5 274.5t315.5 98.5q193 0 294 -76t101 -215q0 -65 -22.5 -118.5t-66.5 -92.5t-116 -94q-90 -70 -90 -139q0 -60 38 -99t163 -104
q125 -66 186.5 -142.5t61.5 -201.5q0 -144 -98.5 -227.5t-272.5 -83.5q-182 0 -319 47l32 139q154 -53 291 -53q101 0 156 43t55 120q0 82 -46 133.5t-152 106.5q-138 68 -194 138.5t-56 172.5z" />
    <glyph glyph-name="agrave" unicode="&#xe0;" horiz-adv-x="1063" 
d="M401 -20q-141 0 -226 82.5t-85 222.5q0 180 112.5 261t397.5 81h139v118q0 230 -213 230q-137 0 -290 -60l-41 127q170 64 346 64q356 0 356 -346v-506q0 -117 119 -156l-51 -131q-125 19 -203 125q-90 -53 -170 -82.5t-191 -29.5zM598 508q-192 0 -270 -47t-78 -170
q0 -88 48 -135t138 -47q160 0 305 94l-2 143v162h-141zM555 1247l-303 254v43l150 41l239 -303z" />
    <glyph glyph-name="aacute" unicode="&#xe1;" horiz-adv-x="1063" 
d="M401 -20q-141 0 -226 82.5t-85 222.5q0 180 112.5 261t397.5 81h139v118q0 230 -213 230q-137 0 -290 -60l-41 127q170 64 346 64q356 0 356 -346v-506q0 -117 119 -156l-51 -131q-125 19 -203 125q-90 -53 -170 -82.5t-191 -29.5zM598 508q-192 0 -270 -47t-78 -170
q0 -88 48 -135t138 -47q160 0 305 94l-2 143v162h-141zM386 1282l240 303l151 -41v-43l-303 -254z" />
    <glyph glyph-name="acircumflex" unicode="&#xe2;" horiz-adv-x="1063" 
d="M401 -20q-141 0 -226 82.5t-85 222.5q0 180 112.5 261t397.5 81h139v118q0 230 -213 230q-137 0 -290 -60l-41 127q170 64 346 64q356 0 356 -346v-506q0 -117 119 -156l-51 -131q-125 19 -203 125q-90 -53 -170 -82.5t-191 -29.5zM598 508q-192 0 -270 -47t-78 -170
q0 -88 48 -135t138 -47q160 0 305 94l-2 143v162h-141zM747 1247l-219 215l-217 -215l-86 35l237 303h134l239 -303z" />
    <glyph glyph-name="atilde" unicode="&#xe3;" horiz-adv-x="1063" 
d="M401 -20q-141 0 -226 82.5t-85 222.5q0 180 112.5 261t397.5 81h139v118q0 230 -213 230q-137 0 -290 -60l-41 127q170 64 346 64q356 0 356 -346v-506q0 -117 119 -156l-51 -131q-125 19 -203 125q-90 -53 -170 -82.5t-191 -29.5zM598 508q-192 0 -270 -47t-78 -170
q0 -88 48 -135t138 -47q160 0 305 94l-2 143v162h-141zM669 1421q70 0 158 99l55 -103q-35 -45 -91 -81t-118 -36q-53 0 -149 46q-96 45 -133 45q-70 0 -152 -103l-63 105q98 116 211 116q53 0 147 -43q94 -45 135 -45z" />
    <glyph glyph-name="adieresis" unicode="&#xe4;" horiz-adv-x="1063" 
d="M401 -20q-141 0 -226 82.5t-85 222.5q0 180 112.5 261t397.5 81h139v118q0 230 -213 230q-137 0 -290 -60l-41 127q170 64 346 64q356 0 356 -346v-506q0 -117 119 -156l-51 -131q-125 19 -203 125q-90 -53 -170 -82.5t-191 -29.5zM598 508q-192 0 -270 -47t-78 -170
q0 -88 48 -135t138 -47q160 0 305 94l-2 143v162h-141zM231 1395q0 55 29 79.5t69 24.5q42 0 71.5 -24.5t29.5 -79.5q0 -54 -29.5 -80.5t-71.5 -26.5q-40 0 -69 26.5t-29 80.5zM630 1395q0 55 28.5 79.5t70.5 24.5q45 0 72.5 -27t27.5 -77q0 -54 -30 -80.5t-70 -26.5
q-42 0 -70.5 26.5t-28.5 80.5z" />
    <glyph glyph-name="aring" unicode="&#xe5;" horiz-adv-x="1063" 
d="M401 -20q-141 0 -226 82.5t-85 222.5q0 180 112.5 261t397.5 81h139v118q0 230 -213 230q-137 0 -290 -60l-41 127q170 64 346 64q356 0 356 -346v-506q0 -117 119 -156l-51 -131q-125 19 -203 125q-90 -53 -170 -82.5t-191 -29.5zM598 508q-192 0 -270 -47t-78 -170
q0 -88 48 -135t138 -47q160 0 305 94l-2 143v162h-141zM311 1466q0 95 63.5 157.5t153.5 62.5q92 0 156.5 -63.5t64.5 -156.5q0 -94 -65.5 -156.5t-155.5 -62.5q-86 0 -151.5 60.5t-65.5 158.5zM411 1464q0 -49 34 -82.5t83 -33.5q51 0 85 33.5t34 82.5t-34 84t-85 35
q-49 0 -83 -35t-34 -84z" />
    <glyph glyph-name="ae" unicode="&#xe6;" horiz-adv-x="1698" 
d="M401 -20q-141 0 -226 82.5t-85 222.5q0 186 117 270t393 84h139v106q0 230 -213 230q-137 0 -290 -60l-41 127q170 64 346 64q245 0 311 -172q106 172 336 172q213 0 303 -127t90 -369v-88h-684q0 -205 79 -308t249 -103q159 0 334 73l32 -131q-186 -76 -387 -76
q-252 0 -366 152q-215 -149 -437 -149zM782 221q-47 115 -51 299h-133q-186 0 -267 -51t-81 -178q0 -88 48 -135t138 -47q180 0 346 112zM1421 643q0 162 -50 248t-183 86q-260 0 -289 -334h522z" />
    <glyph glyph-name="ccedilla" unicode="&#xe7;" horiz-adv-x="973" 
d="M829 922q-145 45 -247 45q-144 0 -223.5 -109.5t-79.5 -314.5q0 -226 81.5 -326t245.5 -100q135 0 275 53l30 -135q-151 -58 -311 -58q-248 0 -366.5 141.5t-118.5 424.5q0 264 121.5 413.5t336.5 149.5q148 0 293 -47zM712 -272q0 -174 -197 -174q-82 0 -145 22l22 94
q66 -16 115 -16q86 0 86 74q0 43 -32 64.5t-158 45.5l106 162h119l-68 -102q152 -35 152 -170z" />
    <glyph glyph-name="egrave" unicode="&#xe8;" horiz-adv-x="1081" 
d="M965 522h-684q0 -205 78.5 -308t248.5 -103q160 0 334 73l33 -131q-187 -76 -387 -76q-473 0 -473 549q0 283 119.5 431.5t336.5 148.5q213 0 303.5 -127t90.5 -369v-88zM805 643q0 162 -50 248t-184 86q-262 0 -290 -334h524zM598 1247l-303 254v43l150 41l239 -303z
" />
    <glyph glyph-name="eacute" unicode="&#xe9;" horiz-adv-x="1081" 
d="M965 522h-684q0 -205 78.5 -308t248.5 -103q160 0 334 73l33 -131q-187 -76 -387 -76q-473 0 -473 549q0 283 119.5 431.5t336.5 148.5q213 0 303.5 -127t90.5 -369v-88zM805 643q0 162 -50 248t-184 86q-262 0 -290 -334h524zM446 1282l240 303l151 -41v-43l-303 -254z
" />
    <glyph glyph-name="ecircumflex" unicode="&#xea;" horiz-adv-x="1081" 
d="M965 522h-684q0 -205 78.5 -308t248.5 -103q160 0 334 73l33 -131q-187 -76 -387 -76q-473 0 -473 549q0 283 119.5 431.5t336.5 148.5q213 0 303.5 -127t90.5 -369v-88zM805 643q0 162 -50 248t-184 86q-262 0 -290 -334h524zM780 1247l-219 215l-217 -215l-86 35
l237 303h134l239 -303z" />
    <glyph glyph-name="edieresis" unicode="&#xeb;" horiz-adv-x="1081" 
d="M965 522h-684q0 -205 78.5 -308t248.5 -103q160 0 334 73l33 -131q-187 -76 -387 -76q-473 0 -473 549q0 283 119.5 431.5t336.5 148.5q213 0 303.5 -127t90.5 -369v-88zM805 643q0 162 -50 248t-184 86q-262 0 -290 -334h524zM270 1395q0 55 29 79.5t69 24.5
q42 0 71.5 -24.5t29.5 -79.5q0 -54 -29.5 -80.5t-71.5 -26.5q-40 0 -69 26.5t-29 80.5zM669 1395q0 55 28.5 79.5t70.5 24.5q45 0 72.5 -27t27.5 -77q0 -54 -30 -80.5t-70 -26.5q-42 0 -70.5 26.5t-28.5 80.5z" />
    <glyph glyph-name="igrave" unicode="&#xec;" horiz-adv-x="506" 
d="M174 0v1085h158v-1085h-158zM271 1247l-303 254v43l150 41l239 -303z" />
    <glyph glyph-name="iacute" unicode="&#xed;" horiz-adv-x="506" 
d="M174 0v1085h158v-1085h-158zM122 1282l240 303l151 -41v-43l-303 -254z" />
    <glyph glyph-name="icircumflex" unicode="&#xee;" horiz-adv-x="506" 
d="M174 0v1085h158v-1085h-158zM460 1247l-219 215l-217 -215l-86 35l237 303h134l239 -303z" />
    <glyph glyph-name="idieresis" unicode="&#xef;" horiz-adv-x="506" 
d="M174 0v1085h158v-1085h-158zM-40 1395q0 55 29 79.5t69 24.5q42 0 71.5 -24.5t29.5 -79.5q0 -54 -29.5 -80.5t-71.5 -26.5q-40 0 -69 26.5t-29 80.5zM359 1395q0 55 28.5 79.5t70.5 24.5q45 0 72.5 -27t27.5 -77q0 -54 -30 -80.5t-70 -26.5q-42 0 -70.5 26.5t-28.5 80.5z
" />
    <glyph glyph-name="eth" unicode="&#xf0;" horiz-adv-x="1180" 
d="M360 1274l166 104q-127 66 -309 66l14 129q252 -6 428 -113l248 158v-123l-155 -98q313 -262 313 -856q0 -271 -120 -416t-355 -145q-236 0 -355.5 141t-119.5 409q0 267 117.5 411t347.5 144q168 0 266 -94q-66 213 -219 326l-267 -168v125zM590 117q307 0 307 415
q0 416 -307 416q-166 0 -236.5 -108.5t-70.5 -307.5q0 -198 70.5 -306.5t236.5 -108.5z" />
    <glyph glyph-name="ntilde" unicode="&#xf1;" horiz-adv-x="1178" 
d="M1018 0h-158v733q0 238 -209 238q-162 0 -319 -105v-866h-158v1085h129l23 -90q84 52 165.5 81.5t198.5 29.5q152 0 240 -91t88 -257v-758zM721 1421q70 0 158 99l55 -103q-35 -45 -91 -81t-118 -36q-53 0 -149 46q-96 45 -133 45q-70 0 -152 -103l-63 105
q98 116 211 116q53 0 147 -43q94 -45 135 -45z" />
    <glyph glyph-name="ograve" unicode="&#xf2;" horiz-adv-x="1180" 
d="M590 117q166 0 236.5 110.5t70.5 315.5t-70.5 315.5t-236.5 110.5t-236.5 -110.5t-70.5 -315.5t70.5 -315.5t236.5 -110.5zM590 -20q-236 0 -355.5 144t-119.5 417q0 274 119.5 419.5t355.5 145.5q235 0 355 -145.5t120 -419.5q0 -273 -120 -417t-355 -144zM606 1247
l-303 254v43l150 41l239 -303z" />
    <glyph glyph-name="oacute" unicode="&#xf3;" horiz-adv-x="1180" 
d="M590 117q166 0 236.5 110.5t70.5 315.5t-70.5 315.5t-236.5 110.5t-236.5 -110.5t-70.5 -315.5t70.5 -315.5t236.5 -110.5zM590 -20q-236 0 -355.5 144t-119.5 417q0 274 119.5 419.5t355.5 145.5q235 0 355 -145.5t120 -419.5q0 -273 -120 -417t-355 -144zM460 1282
l240 303l151 -41v-43l-303 -254z" />
    <glyph glyph-name="ocircumflex" unicode="&#xf4;" horiz-adv-x="1180" 
d="M590 117q166 0 236.5 110.5t70.5 315.5t-70.5 315.5t-236.5 110.5t-236.5 -110.5t-70.5 -315.5t70.5 -315.5t236.5 -110.5zM590 -20q-236 0 -355.5 144t-119.5 417q0 274 119.5 419.5t355.5 145.5q235 0 355 -145.5t120 -419.5q0 -273 -120 -417t-355 -144zM805 1247
l-219 215l-217 -215l-86 35l237 303h134l239 -303z" />
    <glyph glyph-name="otilde" unicode="&#xf5;" horiz-adv-x="1180" 
d="M590 117q166 0 236.5 110.5t70.5 315.5t-70.5 315.5t-236.5 110.5t-236.5 -110.5t-70.5 -315.5t70.5 -315.5t236.5 -110.5zM590 -20q-236 0 -355.5 144t-119.5 417q0 274 119.5 419.5t355.5 145.5q235 0 355 -145.5t120 -419.5q0 -273 -120 -417t-355 -144zM727 1421
q70 0 158 99l55 -103q-35 -45 -91 -81t-118 -36q-53 0 -149 46q-96 45 -133 45q-70 0 -152 -103l-63 105q98 116 211 116q53 0 147 -43q94 -45 135 -45z" />
    <glyph glyph-name="odieresis" unicode="&#xf6;" horiz-adv-x="1180" 
d="M590 117q166 0 236.5 110.5t70.5 315.5t-70.5 315.5t-236.5 110.5t-236.5 -110.5t-70.5 -315.5t70.5 -315.5t236.5 -110.5zM590 -20q-236 0 -355.5 144t-119.5 417q0 274 119.5 419.5t355.5 145.5q235 0 355 -145.5t120 -419.5q0 -273 -120 -417t-355 -144zM289 1395
q0 55 29 79.5t69 24.5q42 0 71.5 -24.5t29.5 -79.5q0 -54 -29.5 -80.5t-71.5 -26.5q-40 0 -69 26.5t-29 80.5zM688 1395q0 55 28.5 79.5t70.5 24.5q45 0 72.5 -27t27.5 -77q0 -54 -30 -80.5t-70 -26.5q-42 0 -70.5 26.5t-28.5 80.5z" />
    <glyph glyph-name="divide" unicode="&#xf7;" 
d="M457 350q0 49 32 82t78 33t78.5 -34t32.5 -81q0 -46 -32.5 -79t-78.5 -33t-78 32t-32 80zM76 635v137h985v-137h-985zM457 1055q0 48 32.5 81t77.5 33q46 0 78.5 -34t32.5 -80q0 -45 -32 -78t-79 -33q-46 0 -78 32t-32 79z" />
    <glyph glyph-name="oslash" unicode="&#xf8;" horiz-adv-x="1180" 
d="M53 -53l160 207q-98 149 -98 387q0 274 119.5 419.5t355.5 145.5q178 0 289 -86l86 113h131l-144 -187q113 -143 113 -405q0 -273 -120 -417t-355 -144q-193 0 -305 98l-103 -131h-129zM590 117q166 0 236.5 110.5t70.5 315.5q0 168 -51 268l-469 -614q69 -80 213 -80z
M283 543q0 -162 36 -250l467 610q-71 66 -196 66q-166 0 -236.5 -110.5t-70.5 -315.5z" />
    <glyph glyph-name="ugrave" unicode="&#xf9;" horiz-adv-x="1178" 
d="M160 1085h157v-733q0 -237 209 -237q166 0 320 104v866h158v-1083h-130l-22 88q-90 -59 -171 -84.5t-194 -25.5q-151 0 -239 91t-88 257v757zM610 1247l-303 254v43l150 41l239 -303z" />
    <glyph glyph-name="uacute" unicode="&#xfa;" horiz-adv-x="1178" 
d="M160 1085h157v-733q0 -237 209 -237q166 0 320 104v866h158v-1083h-130l-22 88q-90 -59 -171 -84.5t-194 -25.5q-151 0 -239 91t-88 257v757zM444 1282l240 303l151 -41v-43l-303 -254z" />
    <glyph glyph-name="ucircumflex" unicode="&#xfb;" horiz-adv-x="1178" 
d="M160 1085h157v-733q0 -237 209 -237q166 0 320 104v866h158v-1083h-130l-22 88q-90 -59 -171 -84.5t-194 -25.5q-151 0 -239 91t-88 257v757zM805 1247l-219 215l-217 -215l-86 35l237 303h134l239 -303z" />
    <glyph glyph-name="udieresis" unicode="&#xfc;" horiz-adv-x="1178" 
d="M160 1085h157v-733q0 -237 209 -237q166 0 320 104v866h158v-1083h-130l-22 88q-90 -59 -171 -84.5t-194 -25.5q-151 0 -239 91t-88 257v757zM289 1395q0 55 29 79.5t69 24.5q42 0 71.5 -24.5t29.5 -79.5q0 -54 -29.5 -80.5t-71.5 -26.5q-40 0 -69 26.5t-29 80.5z
M688 1395q0 55 28.5 79.5t70.5 24.5q45 0 72.5 -27t27.5 -77q0 -54 -30 -80.5t-70 -26.5q-42 0 -70.5 26.5t-28.5 80.5z" />
    <glyph glyph-name="yacute" unicode="&#xfd;" horiz-adv-x="983" 
d="M139 -365q109 78 167.5 153t111.5 210l-418 1087h170l328 -888l317 888h170l-432 -1157q-100 -274 -313 -401zM373 1282l240 303l151 -41v-43l-303 -254z" />
    <glyph glyph-name="thorn" unicode="&#xfe;" horiz-adv-x="1174" 
d="M332 995q149 111 321 111q215 0 310.5 -136t95.5 -415q0 -281 -125 -427t-342 -146q-135 0 -260 28v-465l-158 -20v2027l158 21v-578zM893 555q0 217 -61.5 316.5t-213.5 99.5q-151 0 -286 -107v-704q108 -43 262 -43q133 0 216 106.5t83 331.5z" />
    <glyph glyph-name="ydieresis" unicode="&#xff;" horiz-adv-x="983" 
d="M139 -365q109 78 167.5 153t111.5 210l-418 1087h170l328 -888l317 888h170l-432 -1157q-100 -274 -313 -401zM202 1395q0 55 29 79.5t69 24.5q42 0 71.5 -24.5t29.5 -79.5q0 -54 -29.5 -80.5t-71.5 -26.5q-40 0 -69 26.5t-29 80.5zM601 1395q0 55 28.5 79.5t70.5 24.5
q45 0 72.5 -27t27.5 -77q0 -54 -30 -80.5t-70 -26.5q-42 0 -70.5 26.5t-28.5 80.5z" />
    <glyph glyph-name="dotlessi" unicode="&#x131;" horiz-adv-x="506" 
d="M174 0v1085h158v-1085h-158z" />
    <glyph glyph-name="OE" unicode="&#x152;" horiz-adv-x="1815" 
d="M997 0q-18 -4 -112 -9t-135 -5q-304 0 -464.5 183t-160.5 544q0 366 164 561.5t461 195.5q133 0 264 -16h672v-145h-599v-475h545v-146h-545v-543h599v-145h-689zM750 133q86 0 172 10v1164q-82 14 -172 14q-215 0 -333 -153.5t-118 -454.5q0 -580 451 -580z" />
    <glyph glyph-name="oe" unicode="&#x153;" horiz-adv-x="1862" 
d="M1747 522h-684q0 -205 78 -308t250 -103q163 0 331 73l35 -131q-186 -76 -387 -76q-293 0 -395 228q-45 -105 -142.5 -165t-242.5 -60q-236 0 -355.5 144t-119.5 417q0 274 119.5 419.5t355.5 145.5q293 0 391 -236q49 117 146.5 176.5t226.5 59.5q213 0 303 -127
t90 -369v-88zM590 117q164 0 234.5 108.5t72.5 317.5q0 205 -70.5 315.5t-236.5 110.5t-236.5 -110.5t-70.5 -315.5t70.5 -315.5t236.5 -110.5zM1587 643q0 162 -50 248t-183 86q-262 0 -291 -334h524z" />
    <glyph glyph-name="Scaron" unicode="&#x160;" horiz-adv-x="1090" 
d="M983 381q0 -184 -125 -292.5t-328 -108.5q-247 0 -438 63l43 160q205 -78 393 -78q136 0 212.5 68.5t76.5 175.5q0 100 -62.5 159.5t-273.5 169.5q-198 99 -280 197t-82 240q0 149 110.5 244.5t313.5 95.5q166 0 364 -58l-41 -151q-186 65 -325 65q-125 0 -191.5 -51
t-66.5 -141t65.5 -154.5t263.5 -167.5q224 -117 297.5 -205t73.5 -231zM848 1815l-239 -246h-134l-237 246l86 34l217 -168l219 168z" />
    <glyph glyph-name="scaron" unicode="&#x161;" horiz-adv-x="874" 
d="M782 283q0 -144 -95 -223.5t-275 -79.5q-195 0 -332 47l33 139q153 -53 299 -53q215 0 215 155q0 76 -47.5 123t-186.5 113q-162 67 -227.5 143t-65.5 182q0 277 342 277q150 0 281 -39l-31 -135q-151 41 -252 41q-190 0 -190 -133q0 -66 47 -109t195 -110
q157 -70 223.5 -144t66.5 -194zM734 1550l-239 -303h-134l-237 303l86 35l217 -215l219 215z" />
    <glyph glyph-name="Ydieresis" unicode="&#x178;" horiz-adv-x="1167" 
d="M18 1454h187l381 -661l372 661h191l-483 -805v-649h-166v651zM277 1704q0 50 27 77t71 27q46 0 73.5 -26.5t27.5 -77.5q0 -54 -29.5 -81.5t-71.5 -27.5q-43 0 -70.5 29.5t-27.5 79.5zM682 1704q0 56 29.5 80t71.5 24q40 0 69 -24.5t29 -79.5q0 -54 -29 -81.5t-69 -27.5
q-42 0 -71.5 27.5t-29.5 81.5z" />
    <glyph glyph-name="Zcaron" unicode="&#x17d;" horiz-adv-x="1204" 
d="M1122 0h-1042v119l809 1190h-770v145h973v-115l-805 -1194h835v-145zM909 1815l-239 -246h-134l-237 246l86 34l217 -168l219 168z" />
    <glyph glyph-name="zcaron" unicode="&#x17e;" horiz-adv-x="952" 
d="M78 0v100l567 852h-536v133h743v-100l-569 -852h600v-133h-805zM787 1550l-239 -303h-134l-237 303l86 35l217 -215l219 215z" />
    <glyph glyph-name="florin" unicode="&#x192;" 
d="M852 1573q121 0 246 -35l-37 -131q-90 29 -195 29q-86 0 -126 -49.5t-56 -141.5l-68 -389h320l-23 -131h-321l-209 -1200h-162l211 1200h-182l18 100l189 29l71 408q29 165 107 238t217 73z" />
    <glyph glyph-name="uni0237" unicode="&#x237;" horiz-adv-x="506" 
d="M-53 -360q131 67 179 147t48 201v1097h158v-1130q0 -305 -309 -428z" />
    <glyph glyph-name="circumflex" unicode="&#x2c6;" horiz-adv-x="1024" 
d="M729 1247l-219 215l-217 -215l-86 35l237 303h134l239 -303z" />
    <glyph glyph-name="caron" unicode="&#x2c7;" horiz-adv-x="1024" 
d="M817 1550l-239 -303h-134l-237 303l86 35l217 -215l219 215z" />
    <glyph glyph-name="ring" unicode="&#x2da;" horiz-adv-x="1024" 
d="M293 1466q0 95 63.5 157.5t153.5 62.5q92 0 156.5 -63.5t64.5 -156.5q0 -94 -65.5 -156.5t-155.5 -62.5q-86 0 -151.5 60.5t-65.5 158.5zM393 1464q0 -49 34 -82.5t83 -33.5q51 0 85 33.5t34 82.5t-34 84t-85 35q-49 0 -83 -35t-34 -84z" />
    <glyph glyph-name="tilde" unicode="&#x2dc;" horiz-adv-x="1024" 
d="M651 1421q70 0 158 99l55 -103q-35 -45 -91 -81t-118 -36q-53 0 -149 46q-96 45 -133 45q-70 0 -152 -103l-63 105q98 116 211 116q53 0 147 -43q94 -45 135 -45z" />
    <glyph glyph-name="endash" unicode="&#x2013;" horiz-adv-x="1024" 
d="M31 483v140h960v-140h-960z" />
    <glyph glyph-name="emdash" unicode="&#x2014;" horiz-adv-x="2048" 
d="M31 483v140h1984v-140h-1984z" />
    <glyph glyph-name="quoteleft" unicode="&#x2018;" horiz-adv-x="479" 
d="M98 1016l172 438h115l-115 -487h-153z" />
    <glyph glyph-name="quoteright" unicode="&#x2019;" horiz-adv-x="479" 
d="M381 1403l-172 -436h-115l115 487h153z" />
    <glyph glyph-name="quotesinglbase" unicode="&#x201a;" horiz-adv-x="479" 
d="M381 180l-172 -438h-115l115 489h153z" />
    <glyph glyph-name="quotedblleft" unicode="&#x201c;" horiz-adv-x="829" 
d="M449 1016l172 438h114l-114 -487h-154zM98 1016l172 438h115l-115 -487h-153z" />
    <glyph glyph-name="quotedblright" unicode="&#x201d;" horiz-adv-x="829" 
d="M381 1403l-172 -436h-115l115 487h153zM731 1403l-172 -436h-115l115 487h154z" />
    <glyph glyph-name="quotedblbase" unicode="&#x201e;" horiz-adv-x="829" 
d="M381 180l-172 -438h-115l115 489h153zM731 180l-172 -438h-115l115 489h154z" />
    <glyph glyph-name="dagger" unicode="&#x2020;" horiz-adv-x="985" 
d="M422 -135v1024h-320v137h320v428h139v-428h322v-137h-322v-1024h-139z" />
    <glyph glyph-name="daggerdbl" unicode="&#x2021;" horiz-adv-x="985" 
d="M422 889h-320v137h320v428h139v-428h322v-137h-322v-440h322v-136h-322v-448h-139v448h-320v136h320v440z" />
    <glyph glyph-name="bullet" unicode="&#x2022;" horiz-adv-x="793" 
d="M645 784q0 -102 -72.5 -174.5t-177.5 -72.5q-102 0 -175 72.5t-73 174.5q0 105 73 177.5t175 72.5q105 0 177.5 -72.5t72.5 -177.5z" />
    <glyph glyph-name="ellipsis" unicode="&#x2026;" horiz-adv-x="1614" 
d="M160 102q0 49 32 82t76 33q46 0 78.5 -34t32.5 -81q0 -44 -32 -77t-79 -33q-44 0 -76 32t-32 78zM696 102q0 49 32 82t79 33q44 0 77.5 -34t33.5 -81q0 -46 -33.5 -78t-77.5 -32q-47 0 -79 32t-32 78zM1235 102q0 49 32 82t76 33q46 0 78.5 -32.5t32.5 -82.5
q0 -46 -32 -78t-79 -32q-44 0 -76 32t-32 78z" />
    <glyph glyph-name="perthousand" unicode="&#x2030;" horiz-adv-x="2073" 
d="M631 1135q0 -179 -69.5 -259.5t-207.5 -80.5q-274 0 -274 340t274 340q277 0 277 -340zM420 0h-131l702 1454h131zM500 1135q0 129 -37 182t-109 53q-73 0 -109 -53t-36 -182q0 -134 38 -185t107 -51q70 0 108 51t38 185zM1323 319q0 -339 -274 -339q-277 0 -277 339
q0 181 70.5 260.5t206.5 79.5q274 0 274 -340zM1194 319q0 130 -37 183t-108 53q-76 0 -112 -53t-36 -183q0 -133 39 -184t109 -51q69 0 107 51t38 184zM1995 319q0 -339 -277 -339q-276 0 -276 339q0 340 276 340q277 0 277 -340zM1864 319q0 130 -37 183t-109 53
q-73 0 -109 -53t-36 -183q0 -133 38 -184t107 -51q70 0 108 51t38 184z" />
    <glyph glyph-name="guilsinglleft" unicode="&#x2039;" horiz-adv-x="643" 
d="M598 115h-172l-356 409v19l362 411h170l-366 -419z" />
    <glyph glyph-name="guilsinglright" unicode="&#x203a;" horiz-adv-x="643" 
d="M41 954h170l362 -411v-19l-356 -409h-170l363 417z" />
    <glyph glyph-name="fraction" unicode="&#x2044;" horiz-adv-x="360" 
d="M-102 0h-131l702 1454h129z" />
    <glyph glyph-name="Euro" unicode="&#x20ac;" 
d="M72 924h182q39 276 170 413.5t340 137.5q164 0 313 -60l-45 -143q-131 59 -262 59q-285 0 -344 -407h401v-117h-413l-2 -53v-117h415v-117h-403q57 -399 383 -399q121 0 266 59l35 -137q-147 -63 -320 -63q-231 0 -366 130t-170 410h-180v117h172l-2 35v35l2 100h-172
v117z" />
    <glyph glyph-name="trademark" unicode="&#x2122;" horiz-adv-x="1251" 
d="M1047 848v487l-148 -487h-94l-148 487v-487h-90v606h144l139 -485h4l139 485h146v-606h-92zM313 1366v-518h-98v518h-172v88h442v-88h-172z" />
    <glyph glyph-name="glyph223" horiz-adv-x="694" 
d="M328 670q122 0 186 -45t64 -129q0 -67 -40.5 -120.5t-144.5 -117.5q-87 -53 -128.5 -87t-41.5 -65v-4h391v-102h-524v59q0 75 45 132t162 126q78 48 113.5 84t35.5 80q0 84 -122 84q-91 0 -166 -35l-33 101q114 39 203 39z" />
    <glyph glyph-name="glyph224" horiz-adv-x="694" 
d="M512 623l-334 -392h238v185h127v-185h121v-98h-121v-133h-127v133h-355v115l357 432z" />
    <glyph glyph-name="glyph225" horiz-adv-x="1024" 
d="M379 1604l256 245l149 -41v-43l-323 -196z" />
    <glyph glyph-name="glyph226" horiz-adv-x="1024" 
d="M729 1569l-219 170l-217 -170l-86 35l237 245h134l239 -245z" />
    <glyph glyph-name="glyph227" horiz-adv-x="1024" 
d="M209 1704q0 50 27 77t71 27q46 0 73.5 -26.5t27.5 -77.5q0 -54 -29.5 -81.5t-71.5 -27.5q-43 0 -70.5 29.5t-27.5 79.5zM614 1704q0 56 29.5 80t71.5 24q40 0 69 -24.5t29 -79.5q0 -54 -29 -81.5t-69 -27.5q-42 0 -71.5 27.5t-29.5 81.5z" />
    <glyph glyph-name="glyph228" horiz-adv-x="1024" 
d="M559 1569l-321 196v43l149 41l254 -245z" />
    <glyph glyph-name="glyph229" horiz-adv-x="1024" 
d="M324 1755q0 78 53 133.5t133 55.5t134 -54.5t54 -134.5q0 -78 -53 -132t-135 -54q-80 0 -133 54t-53 132zM416 1755q0 -41 26.5 -67.5t67.5 -26.5t67.5 26.5t26.5 67.5t-26.5 67.5t-67.5 26.5t-67.5 -26.5t-26.5 -67.5z" />
    <glyph glyph-name="glyph230" horiz-adv-x="1024" 
d="M651 1724q74 0 158 99l55 -101q-35 -43 -91 -78.5t-118 -35.5q-61 0 -149 45q-88 43 -133 43q-76 0 -152 -101l-63 101q94 119 211 119q47 0 147 -46q102 -45 135 -45z" />
    <glyph glyph-name="glyph231" horiz-adv-x="1024" 
d="M817 1815l-239 -246h-134l-237 246l86 34l217 -168l219 168z" />
    </font>
</defs>
</svg>
