<?xml version="1.0" standalone="no"?>
<!DOCTYPE svg PUBLIC "-//W3C//DTD SVG 1.1//EN" "http://www.w3.org/Graphics/SVG/1.1/DTD/svg11.dtd" >
<svg xmlns="http://www.w3.org/2000/svg" xmlns:xlink="http://www.w3.org/1999/xlink" version="1.1">
<metadata>
Created by FontForge 20200427 at Thu Nov 27 21:30:18 2014
 By www
Copyright (c) 2012-2013 Monotype Imaging Inc. All rights reserved.
</metadata>
<defs>
<font id="TipperaryeTextW01-Bold" horiz-adv-x="1165" >
  <font-face 
    font-family="TipperaryeTextW01-Bold"
    font-weight="700"
    font-stretch="normal"
    units-per-em="2048"
    panose-1="2 0 5 6 3 0 0 2 0 3"
    ascent="1638"
    descent="-410"
    x-height="1098"
    cap-height="1454"
    bbox="-227 -547 2038 1999"
    underline-thickness="102"
    underline-position="-358"
    unicode-range="U+0020-2122"
  />
<missing-glyph horiz-adv-x="1024" 
d="M25 0v1362h972v-1362h-972zM842 1266h-662l332 -498zM453 682l-330 496v-992zM901 1178l-332 -496l332 -498v994zM512 594l-332 -496h662z" />
    <glyph glyph-name=".notdef" horiz-adv-x="1024" 
d="M25 0v1362h972v-1362h-972zM842 1266h-662l332 -498zM453 682l-330 496v-992zM901 1178l-332 -496l332 -498v994zM512 594l-332 -496h662z" />
    <glyph glyph-name="glyph1" horiz-adv-x="555" 
 />
    <glyph glyph-name="glyph1" horiz-adv-x="555" 
 />
    <glyph glyph-name="nonmarkingreturn" horiz-adv-x="682" 
 />
    <glyph glyph-name="space" unicode=" " horiz-adv-x="578" 
 />
    <glyph glyph-name="exclam" unicode="!" horiz-adv-x="672" 
d="M449 479h-230l-35 975h301zM172 154q0 68 49 115.5t115 47.5t115 -47.5t49 -115.5q0 -69 -49.5 -116.5t-114.5 -47.5q-66 0 -115 47.5t-49 116.5z" />
    <glyph glyph-name="quotedbl" unicode="&#x22;" horiz-adv-x="940" 
d="M795 913h-205l-49 541h301zM352 913h-202l-52 541h303z" />
    <glyph glyph-name="numbersign" unicode="#" horiz-adv-x="1303" 
d="M154 0l96 451h-215l41 180h213l45 225h-211l39 182h211l90 416h184l-88 -416h256l90 416h187l-91 -416h224l-43 -182h-219l-45 -225h221l-43 -180h-217l-95 -451h-186l94 451h-256l-96 -451h-186zM475 631h256l45 225h-256z" />
    <glyph glyph-name="dollar" unicode="$" 
d="M1004 446q0 -151 -87.5 -244t-250.5 -116v-154h-172v146q-210 4 -359 59l58 240q184 -68 346 -68q176 0 176 121q0 46 -23 75t-75.5 60.5t-143.5 69.5q-170 69 -240.5 154t-70.5 223q0 140 88 232.5t244 115.5v145h174v-137q134 -7 280 -45l-53 -233l-60 16
q-131 35 -245 35q-74 0 -115 -30t-41 -85q0 -53 54 -95t202 -100q172 -67 243 -152.5t71 -232.5z" />
    <glyph glyph-name="percent" unicode="%" horiz-adv-x="1411" 
d="M633 1128q0 -176 -70.5 -261t-220.5 -85q-148 0 -219.5 83.5t-71.5 262.5t71.5 263t219.5 84q150 0 220.5 -84.5t70.5 -262.5zM449 0h-189l703 1454h188zM434 1128q0 116 -20 160.5t-72 44.5t-72 -41t-20 -164q0 -120 20 -162t72 -42q53 0 72.5 46t19.5 158zM1360 326
q0 -178 -70.5 -262t-220.5 -84t-220.5 84t-70.5 262t71.5 262t219.5 84q150 0 220.5 -84.5t70.5 -261.5zM1161 326q0 115 -19.5 159.5t-72.5 44.5q-52 0 -72 -41t-20 -163t20 -163.5t72 -41.5q53 0 72.5 46t19.5 159z" />
    <glyph glyph-name="ampersand" unicode="&#x26;" horiz-adv-x="1495" 
d="M94 434q0 142 52.5 229t189.5 168q-115 178 -115 326q0 318 385 318q179 0 273 -82t94 -238q0 -130 -65.5 -213.5t-225.5 -167.5q132 -159 322 -330q45 129 45 338h264q0 -307 -92 -493q122 -68 249 -96l-79 -244q-177 44 -332 143q-156 -112 -420 -112
q-272 0 -408.5 111.5t-136.5 342.5zM637 217q125 0 207 39q-178 162 -373 397q-51 -40 -72.5 -86t-21.5 -114q0 -236 260 -236zM473 1143q0 -77 76 -199q68 38 106 68.5t56 60.5t18 80q0 57 -31 89t-94 32q-65 0 -98 -35.5t-33 -95.5z" />
    <glyph glyph-name="quotesingle" unicode="'" horiz-adv-x="500" 
d="M352 913h-202l-52 541h303z" />
    <glyph glyph-name="parenleft" unicode="(" horiz-adv-x="688" 
d="M373 -342q-213 409 -213 958q4 550 213 957h233q-178 -488 -178 -959t174 -956h-229z" />
    <glyph glyph-name="parenright" unicode=")" horiz-adv-x="688" 
d="M86 -342q174 485 174 956t-178 959h233q107 -212 158 -442.5t55 -514.5q0 -545 -213 -958h-229z" />
    <glyph glyph-name="asterisk" unicode="*" horiz-adv-x="1049" 
d="M879 874l-177 -126l-180 270l-178 -270l-176 126l209 236l-297 66l55 217l303 -129l-32 309h231l-31 -309l305 129l58 -217l-303 -66z" />
    <glyph glyph-name="plus" unicode="+" 
d="M692 590v-385h-227v385h-385v229h385v385h227v-385h391v-229h-391z" />
    <glyph glyph-name="comma" unicode="," horiz-adv-x="479" 
d="M438 240l-221 -508h-188l121 577h260z" />
    <glyph glyph-name="hyphen" unicode="-" horiz-adv-x="768" 
d="M111 438v230h544v-230h-544z" />
    <glyph glyph-name="period" unicode="." horiz-adv-x="537" 
d="M104 154q0 68 49 115.5t115 47.5t115 -47.5t49 -115.5q0 -69 -49.5 -116.5t-114.5 -47.5q-66 0 -115 47.5t-49 116.5z" />
    <glyph glyph-name="slash" unicode="/" horiz-adv-x="872" 
d="M256 -166h-252l610 1739h254z" />
    <glyph glyph-name="zero" unicode="0" 
d="M1079 743q0 -398 -119 -580.5t-374 -182.5q-264 0 -381 172t-117 557q0 395 121.5 580.5t376.5 185.5q264 0 378.5 -172.5t114.5 -559.5zM809 745q0 274 -51 384t-174 110q-117 0 -169.5 -122t-52.5 -412q0 -275 50 -383.5t172 -108.5q120 0 172.5 124.5t52.5 407.5z" />
    <glyph glyph-name="one" unicode="1" 
d="M133 1329l465 125h141v-1229h285v-225h-868v225h309v957l-264 -78z" />
    <glyph glyph-name="two" unicode="2" 
d="M543 1475q233 0 353 -98.5t120 -286.5q0 -159 -73 -272.5t-263 -246.5q-111 -77 -173.5 -131t-89 -95t-26.5 -95v-8h676v-242h-950v168q0 125 32.5 218t99.5 167t204 158q158 98 220 172t62 174q0 91 -51 136.5t-147 45.5q-136 0 -306 -68l-77 232q188 72 389 72z" />
    <glyph glyph-name="three" unicode="3" 
d="M721 1073q0 78 -57.5 121t-171.5 43q-160 0 -295 -59l-70 235q87 28 192 45t199 17q231 0 350 -90t119 -259q0 -260 -244 -346q135 -34 215 -129t80 -227q0 -215 -134 -329.5t-390 -114.5q-121 0 -213.5 10t-198.5 39l58 243q171 -57 352 -57q258 0 258 217
q0 98 -86 156.5t-235 58.5h-162v230h172q124 0 193 52t69 144z" />
    <glyph glyph-name="four" unicode="4" 
d="M903 1368l-600 -846h361v402h268v-402h213v-241h-213v-281h-270v281h-617v251l645 969z" />
    <glyph glyph-name="five" unicode="5" 
d="M1040 463q0 -227 -146.5 -355t-391.5 -128q-108 0 -200 9t-206 36l62 243q207 -53 346 -53q268 0 268 236q0 107 -78.5 163t-242.5 68l-299 23l98 749h717v-242h-500l-37 -294l86 -7q275 -20 399.5 -132t124.5 -316z" />
    <glyph glyph-name="six" unicode="6" 
d="M100 659q0 365 207 580.5t596 259.5l47 -250q-265 -35 -410.5 -138.5t-158.5 -268.5q71 38 131.5 52.5t144.5 14.5q202 0 311 -111.5t109 -320.5q0 -238 -119 -367.5t-350 -129.5q-250 0 -379 170.5t-129 508.5zM807 457q0 105 -48.5 161t-140.5 56q-131 0 -245 -74
q0 -185 58.5 -285t164.5 -100q102 0 156.5 63t54.5 179z" />
    <glyph glyph-name="seven" unicode="7" 
d="M502 0h-307l577 1212h-678v242h996v-164z" />
    <glyph glyph-name="eight" unicode="8" 
d="M1071 403q0 -198 -129.5 -310.5t-361.5 -112.5q-231 0 -359.5 112t-128.5 311q0 138 67.5 226.5t192.5 128.5q-104 34 -159.5 123.5t-55.5 224.5q0 174 120 271.5t325 97.5q132 0 232.5 -43.5t156 -126.5t55.5 -199q0 -283 -217 -348q129 -40 195.5 -131t66.5 -224z
M754 1075q0 95 -45.5 134.5t-126.5 39.5q-174 0 -174 -174q0 -94 46.5 -148.5t127.5 -54.5q79 0 125.5 55t46.5 148zM801 430q0 102 -62.5 163.5t-160.5 61.5q-101 0 -162.5 -62.5t-61.5 -162.5q0 -109 58 -168t166 -59q106 0 164.5 60t58.5 167z" />
    <glyph glyph-name="nine" unicode="9" 
d="M1051 811q0 -241 -100 -424t-286 -293t-444 -139l-47 250q270 36 426.5 141t169.5 266q-75 -40 -131 -53.5t-137 -13.5q-202 0 -315 111.5t-113 320.5q0 232 123.5 365t345.5 133q247 0 377.5 -172t130.5 -492zM344 997q0 -107 48.5 -162t139.5 -55q73 0 131 18.5
t115 55.5q0 185 -58.5 285t-164.5 100q-102 0 -156.5 -63t-54.5 -179z" />
    <glyph glyph-name="colon" unicode=":" horiz-adv-x="537" 
d="M104 154q0 68 49 115.5t115 47.5t115 -47.5t49 -115.5q0 -69 -49.5 -116.5t-114.5 -47.5q-66 0 -115 47.5t-49 116.5zM104 934q0 67 49 115.5t115 48.5q67 0 115.5 -49t48.5 -115q0 -67 -49 -115.5t-115 -48.5q-67 0 -115.5 49t-48.5 115z" />
    <glyph glyph-name="semicolon" unicode=";" horiz-adv-x="578" 
d="M449 240l-222 -508h-188l121 577h260zM145 934q0 67 49 115.5t115 48.5q67 0 115.5 -49t48.5 -115q0 -67 -49 -115.5t-115 -48.5q-67 0 -115.5 49t-48.5 115z" />
    <glyph glyph-name="less" unicode="&#x3c;" 
d="M1083 973l-727 -268l727 -267v-254l-1003 418v205l1003 420v-254z" />
    <glyph glyph-name="equal" unicode="=" 
d="M80 360v230h1003v-230h-1003zM80 819v230h1003v-230h-1003z" />
    <glyph glyph-name="greater" unicode="&#x3e;" 
d="M80 1227l1003 -420v-205l-1003 -418v254l727 267l-727 268v254z" />
    <glyph glyph-name="question" unicode="?" horiz-adv-x="846" 
d="M207 154q0 68 49 115.5t115 47.5t115 -47.5t49 -115.5q0 -69 -49.5 -116.5t-114.5 -47.5q-66 0 -115 47.5t-49 116.5zM248 479q0 147 13 208.5t44 110.5t90 101q84 75 113 117t29 102q0 53 -39 85t-117 32q-111 0 -260 -55l-62 233q116 37 197 49.5t166 12.5
q177 0 283 -85.5t106 -228.5q0 -116 -37 -199.5t-143 -175.5q-77 -65 -103 -102t-36.5 -84.5t-10.5 -120.5h-233z" />
    <glyph glyph-name="at" unicode="@" horiz-adv-x="1890" 
d="M1769 772q0 -298 -128.5 -461.5t-366.5 -163.5q-75 0 -130 28.5t-83 78.5q-73 -66 -135.5 -90.5t-130.5 -24.5q-87 0 -154.5 45.5t-105 131.5t-37.5 204q0 259 144.5 414.5t393.5 155.5q76 0 170 -17.5t176 -50.5l-102 -520q-16 -80 -16 -125q0 -47 49 -47q124 0 192 115
t68 325q0 255 -142 391.5t-401 136.5q-211 0 -375 -97t-253 -275t-89 -410q0 -191 69.5 -330.5t197 -212.5t297.5 -73q84 0 184.5 19t259.5 71l59 -168q-102 -47 -241.5 -76t-266.5 -29q-228 0 -400.5 95.5t-261.5 270.5t-89 415q0 297 113 517.5t322 340t482 119.5
q220 0 386 -86t255.5 -246t89.5 -371zM1130 874q-62 19 -122 19q-136 0 -213.5 -101t-77.5 -272q0 -190 137 -190q110 0 193 88z" />
    <glyph glyph-name="A" unicode="A" horiz-adv-x="1284" 
d="M854 422h-436l-133 -422h-289l487 1454h320l487 -1454h-303zM782 655l-104 371q-15 50 -39 180q-31 -137 -47 -184l-107 -367h297z" />
    <glyph glyph-name="B" unicode="B" horiz-adv-x="1290" 
d="M1198 408q0 -408 -534 -408h-484v1454h453q251 0 377.5 -88.5t126.5 -261.5q0 -229 -211 -340q132 -50 202 -142.5t70 -213.5zM850 1061q0 160 -195 160h-190v-355h162q108 0 165.5 53.5t57.5 141.5zM674 233q116 0 173.5 50.5t57.5 160.5q0 86 -61.5 137.5t-161.5 51.5
h-217v-400h209z" />
    <glyph glyph-name="C" unicode="C" horiz-adv-x="1229" 
d="M795 229q65 0 116 5.5t94 16t123 40.5l52 -238q-203 -73 -420 -73q-334 0 -496 181.5t-162 547.5q0 245 75.5 419.5t218 260.5t343.5 86q203 0 406 -64l-72 -248q-141 62 -321 62q-355 0 -355 -523q0 -233 103.5 -353t294.5 -120z" />
    <glyph glyph-name="D" unicode="D" horiz-adv-x="1425" 
d="M1323 774q0 -373 -176.5 -573.5t-503.5 -200.5h-463v1454h459q332 0 508 -174.5t176 -505.5zM1026 764q0 217 -98.5 331.5t-288.5 114.5h-174v-968h162q208 0 303.5 125t95.5 397z" />
    <glyph glyph-name="E" unicode="E" horiz-adv-x="1137" 
d="M180 0v1454h821v-244h-536v-338h479v-241h-479v-389h536v-242h-821z" />
    <glyph glyph-name="F" unicode="F" horiz-adv-x="1067" 
d="M180 0v1454h821v-244h-536v-338h479v-241h-479v-631h-285z" />
    <glyph glyph-name="G" unicode="G" horiz-adv-x="1376" 
d="M758 231q119 0 211 23v471h282v-657q-111 -32 -245 -60t-211 -28q-227 0 -381 75.5t-233 236t-79 417.5q0 370 174 568t512 198q210 0 437 -72l-74 -246q-82 28 -169 48t-189 20q-203 0 -299.5 -124.5t-96.5 -398.5q0 -245 91 -358t270 -113z" />
    <glyph glyph-name="H" unicode="H" horiz-adv-x="1489" 
d="M1024 0v627h-559v-627h-285v1454h285v-586h559v586h285v-1454h-285z" />
    <glyph glyph-name="I" unicode="I" horiz-adv-x="645" 
d="M180 0v1454h285v-1454h-285z" />
    <glyph glyph-name="J" unicode="J" horiz-adv-x="887" 
d="M449 1454h284v-1020q0 -174 -41.5 -270.5t-131.5 -140t-251 -43.5q-151 0 -286 40l51 234q120 -31 207 -31q85 0 126.5 41.5t41.5 134.5v1055z" />
    <glyph glyph-name="K" unicode="K" horiz-adv-x="1313" 
d="M571 608h-106v-608h-285v1454h285v-608h119l360 608h303l-440 -721l506 -733h-334z" />
    <glyph glyph-name="L" unicode="L" horiz-adv-x="1032" 
d="M465 242h536v-242h-821v1454h285v-1212z" />
    <glyph glyph-name="M" unicode="M" horiz-adv-x="1978" 
d="M825 0l-321 1020l-37 125l-39 135q14 -140 14 -297v-983h-262v1454h443l327 -1040q20 -73 27.5 -110t15.5 -95q16 135 45 235l324 1010h436v-1454h-278v975q0 156 10 276q-25 -134 -74 -278l-311 -973h-320z" />
    <glyph glyph-name="N" unicode="N" horiz-adv-x="1569" 
d="M1389 0h-388l-471 938q-35 72 -84 219l3 -81l4 -140v-936h-273v1454h387l465 -915q50 -117 90 -244q-6 132 -6 233v926h273v-1454z" />
    <glyph glyph-name="O" unicode="O" horiz-adv-x="1460" 
d="M1358 721q0 -370 -159.5 -555.5t-467.5 -185.5q-199 0 -339.5 80t-215 247t-74.5 418q0 365 158 557.5t471 192.5t470 -192.5t157 -561.5zM1059 725q0 500 -332 500q-330 0 -330 -500q0 -498 330 -498q332 0 332 498z" />
    <glyph glyph-name="P" unicode="P" horiz-adv-x="1239" 
d="M1157 999q0 -239 -135.5 -367t-380.5 -128h-176v-504h-285v1454h467q510 0 510 -455zM872 995q0 107 -56 165.5t-163 58.5h-188v-480h160q111 0 179 69.5t68 186.5z" />
    <glyph glyph-name="Q" unicode="Q" horiz-adv-x="1460" 
d="M1358 721q0 -282 -94.5 -459.5t-278.5 -243.5q262 -97 612 -149l-92 -248q-244 50 -451 135t-433 232q-256 31 -387.5 219t-131.5 518q0 365 158 557.5t471 192.5t470 -192.5t157 -561.5zM1059 725q0 500 -332 500q-330 0 -330 -500q0 -498 330 -498q332 0 332 498z" />
    <glyph glyph-name="R" unicode="R" horiz-adv-x="1282" 
d="M1128 1051q0 -142 -68 -257.5t-183 -177.5l380 -616h-331l-308 553h-174v-553h-280v1454h467q250 0 373.5 -99t123.5 -304zM852 1026q0 87 -50 135.5t-155 48.5h-203v-415h199q99 0 154 62t55 169z" />
    <glyph glyph-name="S" unicode="S" horiz-adv-x="1130" 
d="M1047 420q0 -203 -130.5 -321.5t-363.5 -118.5q-274 0 -479 63l59 268q99 -41 209.5 -65.5t208.5 -24.5q102 0 158.5 45.5t56.5 120.5q0 55 -24 89t-80 68.5t-199 100.5q-206 95 -286.5 192t-80.5 257q0 177 131 279t363 102q96 0 205 -18t192 -42l-61 -256l-78 25
q-145 47 -254 47q-105 0 -161 -33.5t-56 -97.5q0 -63 69 -114t248 -130q189 -84 271 -182.5t82 -253.5z" />
    <glyph glyph-name="T" unicode="T" horiz-adv-x="1102" 
d="M692 1210v-1210h-282v1210h-385v244h1050v-244h-383z" />
    <glyph glyph-name="U" unicode="U" horiz-adv-x="1427" 
d="M1264 451q0 -145 -62.5 -250.5t-190 -163t-296.5 -57.5q-168 0 -295.5 56.5t-191.5 161t-64 253.5v1003h282v-995q0 -107 71.5 -170.5t199.5 -63.5q126 0 197 61t71 173v995h279v-1003z" />
    <glyph glyph-name="V" unicode="V" horiz-adv-x="1260" 
d="M799 0h-342l-457 1454h307l291 -989q30 -106 41 -223q10 109 37 223l293 989h291z" />
    <glyph glyph-name="W" unicode="W" horiz-adv-x="1999" 
d="M989 1225l-11 -78l-26 -148l-225 -999h-340l-330 1454h297l176 -903q15 -92 33 -279l14 105l27 174l205 903h367l210 -903q17 -84 35 -277q21 189 39 279l182 901h300l-328 -1454h-361l-227 995q-19 102 -37 230z" />
    <glyph glyph-name="X" unicode="X" horiz-adv-x="1323" 
d="M668 946l293 508h317l-455 -717l477 -737h-317l-321 528l-320 -528h-319l477 737l-447 717h322z" />
    <glyph glyph-name="Y" unicode="Y" horiz-adv-x="1235" 
d="M0 1454h313l312 -645l293 645h317l-475 -893v-561h-285v563z" />
    <glyph glyph-name="Z" unicode="Z" horiz-adv-x="1260" 
d="M1180 0h-1106v178l704 1032h-663v244h1024v-168l-697 -1044h738v-242z" />
    <glyph glyph-name="bracketleft" unicode="[" horiz-adv-x="721" 
d="M172 -342v1915h485v-232h-223v-1452h223v-231h-485z" />
    <glyph glyph-name="backslash" unicode="\" horiz-adv-x="872" 
d="M4 1573h254l610 -1739h-252z" />
    <glyph glyph-name="bracketright" unicode="]" horiz-adv-x="721" 
d="M63 -342v231h224v1452h-224v232h486v-1915h-486z" />
    <glyph glyph-name="asciicircum" unicode="^" horiz-adv-x="1124" 
d="M41 569l420 1004h207l415 -1004h-254l-266 727l-268 -727h-254z" />
    <glyph glyph-name="underscore" unicode="_" horiz-adv-x="1196" 
d="M-4 -352v174h1204v-174h-1204z" />
    <glyph glyph-name="grave" unicode="`" horiz-adv-x="1024" 
d="M502 1247l-324 277v49l279 47l192 -322z" />
    <glyph glyph-name="a" unicode="a" horiz-adv-x="1110" 
d="M387 -20q-133 0 -215 85t-82 234q0 199 112.5 285t370.5 86h115v69q0 88 -38 131t-130 43q-125 0 -270 -61l-64 199q190 65 369 65q210 0 306.5 -84t96.5 -270v-426q0 -113 119 -162l-92 -217q-94 15 -154.5 48.5t-103.5 84.5q-107 -69 -175.5 -89.5t-164.5 -20.5z
M580 494q-122 0 -173 -41t-51 -140q0 -137 127 -137q123 0 215 72q-10 157 -10 246h-108z" />
    <glyph glyph-name="b" unicode="b" horiz-adv-x="1198" 
d="M1102 561q0 -276 -133.5 -431t-368.5 -155q-230 0 -446 66v1511l270 21v-559q74 56 143.5 79t141.5 23q200 0 296.5 -138t96.5 -417zM823 561q0 177 -44.5 256.5t-149.5 79.5q-51 0 -109.5 -25.5t-95.5 -60.5v-586q68 -30 178 -30q104 0 162.5 90t58.5 276z" />
    <glyph glyph-name="c" unicode="c" horiz-adv-x="987" 
d="M831 840q-55 20 -110.5 34.5t-124.5 14.5q-109 0 -167 -85t-58 -255q0 -175 61 -258.5t184 -83.5q67 0 150 15t129 34l45 -219q-82 -31 -173.5 -46.5t-162.5 -15.5q-182 0 -289.5 60t-163 186.5t-55.5 327.5q0 268 124.5 417.5t357.5 149.5q155 0 315 -51z" />
    <glyph glyph-name="d" unicode="d" horiz-adv-x="1198" 
d="M96 535q0 279 107 433t299 154q152 0 270 -69v499l272 21v-1573h-210l-43 90q-77 -60 -147 -85t-148 -25q-209 0 -304.5 135t-95.5 420zM379 541q0 -182 43 -261t147 -79q112 0 205 88v551q-90 63 -188 63t-152.5 -93.5t-54.5 -268.5z" />
    <glyph glyph-name="e" unicode="e" horiz-adv-x="1112" 
d="M1016 500h-641q0 -156 67 -234t209 -78q75 0 168 19t158 47l51 -203q-193 -76 -420 -76q-512 0 -512 555q0 283 128.5 434.5t365.5 151.5q217 0 321.5 -127t104.5 -397v-92zM756 678q0 128 -41.5 186t-128.5 58q-94 0 -147 -63t-64 -181h381z" />
    <glyph glyph-name="f" unicode="f" horiz-adv-x="780" 
d="M211 1092v159q0 167 77.5 244.5t237.5 77.5q158 0 299 -41l-49 -207q-113 29 -178 29q-117 0 -117 -152v-104h285v-209h-285v-889h-270v889h-166v160z" />
    <glyph glyph-name="g" unicode="g" horiz-adv-x="1159" 
d="M1071 -88q0 -181 -156 -284t-426 -103q-232 0 -346 71.5t-114 223.5q0 83 51 154t178 149q-102 61 -102 168q0 29 15.5 54t54.5 57l40 34q-87 52 -134.5 137.5t-47.5 184.5q0 163 117.5 261.5t316.5 98.5q56 0 115 -11t80 -22q165 9 360 80l41 -194q-42 -14 -117.5 -25.5
t-122.5 -11.5q76 -74 76 -184q0 -164 -117 -266.5t-311 -102.5q-89 0 -119 6q-30 -30 -30 -63q0 -35 68.5 -51.5t240.5 -26.5q202 -13 295.5 -92t93.5 -242zM528 -289q131 0 213 49.5t82 130.5q0 38 -18.5 60t-52.5 34.5t-148 24.5q-24 1 -104.5 11.5t-100.5 15.5
q-125 -83 -125 -193q0 -63 65 -98t189 -35zM690 754q0 182 -170 182q-82 0 -128 -47t-46 -133q0 -100 44.5 -144.5t129.5 -44.5q170 0 170 187z" />
    <glyph glyph-name="h" unicode="h" horiz-adv-x="1221" 
d="M807 0v717q0 180 -156 180q-115 0 -227 -86v-811h-270v1552l270 21v-567q101 66 171.5 88t154.5 22q93 0 167.5 -41.5t117 -120.5t42.5 -188v-766h-270z" />
    <glyph glyph-name="i" unicode="i" horiz-adv-x="578" 
d="M154 0v1098h270v-1098h-270zM139 1423q0 61 44.5 105.5t105.5 44.5q62 0 105.5 -44.5t43.5 -105.5q0 -59 -42.5 -104t-106.5 -45q-63 0 -106.5 44.5t-43.5 104.5z" />
    <glyph glyph-name="j" unicode="j" horiz-adv-x="578" 
d="M-72 -291q120 65 173 141.5t53 184.5v1063h270v-1098q0 -357 -383 -475zM139 1423q0 61 44.5 105.5t105.5 44.5q62 0 105.5 -44.5t43.5 -105.5q0 -59 -42.5 -104t-106.5 -45q-63 0 -106.5 44.5t-43.5 104.5z" />
    <glyph glyph-name="k" unicode="k" horiz-adv-x="1120" 
d="M813 0l-299 446h-90v-446h-270v1552l270 21v-924h61l287 449h303l-354 -516l403 -582h-311z" />
    <glyph glyph-name="l" unicode="l" horiz-adv-x="612" 
d="M147 1552l271 21v-1186q0 -88 42.5 -138.5t151.5 -74.5l-39 -194q-221 15 -323.5 103t-102.5 269v1200z" />
    <glyph glyph-name="m" unicode="m" horiz-adv-x="1833" 
d="M1690 0h-271v717q0 180 -147 180q-107 0 -217 -86l2 -24v-787h-271v717q0 180 -147 180q-109 0 -215 -86v-811h-270v1098h225l29 -92q89 60 167 85t164 25q73 0 141.5 -31.5t114.5 -97.5q84 56 176.5 92.5t200.5 36.5q91 0 163.5 -42.5t113.5 -121.5t41 -186v-766z" />
    <glyph glyph-name="n" unicode="n" horiz-adv-x="1221" 
d="M1077 0h-270v717q0 180 -156 180q-115 0 -227 -86v-811h-270v1098h225l29 -92q92 60 172 85t170 25q93 0 167.5 -41.5t117 -120.5t42.5 -188v-766z" />
    <glyph glyph-name="o" unicode="o" horiz-adv-x="1204" 
d="M602 203q112 0 166.5 83.5t54.5 262.5q0 183 -53.5 263.5t-167.5 80.5q-113 0 -167 -80t-54 -264q0 -178 55 -262t166 -84zM602 -20q-245 0 -375.5 146.5t-130.5 420.5t130 421.5t376 147.5t376 -147.5t130 -421.5q0 -277 -131 -422t-375 -145z" />
    <glyph glyph-name="p" unicode="p" horiz-adv-x="1198" 
d="M1102 561q0 -275 -133 -428t-369 -153q-94 0 -174 10v-445l-272 -20v1573h225l29 -92q81 64 148.5 87t152.5 23q200 0 296.5 -138t96.5 -417zM823 561q0 177 -44.5 256.5t-149.5 79.5q-51 0 -109.5 -25.5t-95.5 -60.5v-586q68 -30 178 -30q104 0 162.5 90t58.5 276z" />
    <glyph glyph-name="q" unicode="q" horiz-adv-x="1198" 
d="M96 535q0 275 108 428t304 153q158 0 287 -102l24 84h225v-1551l-270 -20v563q-87 -68 -147 -89t-131 -21q-209 0 -304.5 135t-95.5 420zM379 541q0 -182 43 -261t147 -79q112 0 205 88v551q-90 63 -188 63t-152.5 -93.5t-54.5 -268.5z" />
    <glyph glyph-name="r" unicode="r" horiz-adv-x="817" 
d="M154 1098h221l24 -129q59 83 112.5 115t119.5 32q81 0 151 -18l-34 -252q-65 20 -150 20q-104 0 -174 -96v-770h-270v1098z" />
    <glyph glyph-name="s" unicode="s" horiz-adv-x="944" 
d="M858 315q0 -160 -98.5 -247.5t-306.5 -87.5q-232 0 -385 53l53 227q163 -61 317 -61q86 0 120 24t34 68q0 38 -19 60.5t-62.5 47t-135.5 62.5q-154 63 -218.5 140t-64.5 194q0 161 99 241t305 80q155 0 311 -43l-47 -221q-168 47 -266 47q-150 0 -150 -86q0 -41 44 -73
t185 -89q157 -63 221 -138.5t64 -197.5z" />
    <glyph glyph-name="t" unicode="t" horiz-adv-x="827" 
d="M465 889v-574q0 -114 106 -114q71 0 189 26l33 -198q-143 -49 -316 -49q-137 0 -209.5 68.5t-72.5 221.5v619h-166v166l166 37v264l270 59v-317h301v-209h-301z" />
    <glyph glyph-name="u" unicode="u" horiz-adv-x="1221" 
d="M143 1098h271v-719q0 -180 155 -180q116 0 228 88v811h270v-1098h-225l-29 92q-95 -62 -176.5 -87t-165.5 -25q-95 0 -170 42.5t-116.5 121.5t-41.5 186v768z" />
    <glyph glyph-name="v" unicode="v" horiz-adv-x="1098" 
d="M412 0l-412 1098h293l256 -783l256 783h293l-412 -1098h-274z" />
    <glyph glyph-name="w" unicode="w" horiz-adv-x="1739" 
d="M391 0l-371 1098h293l219 -762l211 762h252l209 -762l221 762h293l-370 -1098h-285l-195 700l-192 -700h-285z" />
    <glyph glyph-name="x" unicode="x" horiz-adv-x="1087" 
d="M698 559l371 -559h-297l-233 391l-230 -391h-297l371 559l-348 539h293l211 -361l219 361h286z" />
    <glyph glyph-name="y" unicode="y" horiz-adv-x="1098" 
d="M170 -305q56 44 96.5 85.5t71.5 86t74 133.5l-412 1098h293l256 -783l256 783h293l-430 -1147q-51 -137 -134.5 -246.5t-195.5 -177.5z" />
    <glyph glyph-name="z" unicode="z" horiz-adv-x="983" 
d="M72 0v154l475 735h-449v209h795v-154l-479 -735h497v-209h-839z" />
    <glyph glyph-name="braceleft" unicode="{" horiz-adv-x="834" 
d="M535 66q0 -94 55 -134.5t180 -42.5v-233q-178 0 -284.5 30.5t-155.5 92.5t-49 180v385q0 92 -66 130t-190 38v213q124 0 190 39.5t66 136.5v359q0 114 51 178.5t158 98.5t282 36v-219q-127 -2 -181 -43.5t-54 -136.5v-343q0 -89 -34.5 -142.5t-117.5 -70.5v-10
q83 -17 116.5 -69t33.5 -140v-333z" />
    <glyph glyph-name="bar" unicode="|" 
d="M694 -475h-227v2048h227v-2048z" />
    <glyph glyph-name="braceright" unicode="}" horiz-adv-x="834" 
d="M299 399q0 88 33.5 140t116.5 69v10q-83 17 -117.5 70.5t-34.5 142.5v343q0 95 -55.5 137t-180.5 43v219q175 -2 282.5 -36t158.5 -98.5t51 -178.5v-359q0 -97 65.5 -136.5t190.5 -39.5v-213q-125 0 -190.5 -38t-65.5 -130v-385q0 -118 -49 -180t-156.5 -92.5
t-284.5 -30.5v233q125 2 180.5 43t55.5 134v333z" />
    <glyph glyph-name="asciitilde" unicode="~" 
d="M821 528q-58 0 -118 16.5t-121 36t-121.5 36t-118.5 16.5q-57 0 -128 -29.5t-134 -81.5v242q57 44 128.5 71t133.5 27q63 0 123.5 -16t120 -35t118 -35t117.5 -16q65 0 134.5 28.5t127.5 73.5v-229q-54 -48 -125.5 -76.5t-136.5 -28.5z" />
    <glyph glyph-name="uni00A0" unicode="&#xa0;" horiz-adv-x="578" 
 />
    <glyph glyph-name="exclamdown" unicode="&#xa1;" horiz-adv-x="672" 
d="M485 -348h-301l35 975h230zM172 952q0 67 49 115.5t115 48.5q67 0 115.5 -49t48.5 -115q0 -67 -49 -115.5t-115 -48.5q-67 0 -115.5 49t-48.5 115z" />
    <glyph glyph-name="cent" unicode="&#xa2;" 
d="M922 1024q-56 20 -111.5 34.5t-124.5 14.5q-109 0 -167 -85t-58 -255q0 -174 61 -258t185 -84q60 0 136.5 13t141.5 36l45 -219q-129 -46 -254 -57v-184h-172v184q-215 19 -316.5 158t-101.5 411q0 254 109.5 399t308.5 164v179h174v-181q79 -8 205 -45z" />
    <glyph glyph-name="sterling" unicode="&#xa3;" 
d="M690 1475q110 0 203 -17t178 -39l-55 -233q-175 53 -297 53q-74 0 -103.5 -40t-29.5 -132v-205h317v-229h-317v-123q0 -95 -34 -170.5t-85 -97.5h637v-242h-1020v242h16q97 0 150 67.5t53 192.5v131h-219v207l219 22v225q0 147 36 230t117.5 120.5t233.5 37.5z" />
    <glyph glyph-name="currency" unicode="&#xa4;" 
d="M950 807q0 -92 -45 -174l168 -166l-139 -139l-164 164q-91 -54 -188 -54q-98 0 -189 54l-164 -164l-139 139l168 166q-45 82 -45 174t45 174l-168 166l139 139l164 -164q91 54 189 54q97 0 188 -54l164 164l139 -139l-168 -166q45 -82 45 -174zM766 807q0 75 -54 129.5
t-130 54.5t-130.5 -54.5t-54.5 -129.5t54 -129.5t131 -54.5q75 0 129.5 54t54.5 130z" />
    <glyph glyph-name="yen" unicode="&#xa5;" 
d="M113 774h276l-358 680h301l211 -493q3 -8 6.5 -18t32.5 -118q24 104 39 136l210 493h302l-359 -680h277v-164h-332v-168h332v-163h-332v-279h-275v279h-331v163h331v168h-331v164z" />
    <glyph glyph-name="brokenbar" unicode="&#xa6;" horiz-adv-x="1161" 
d="M694 770h-227v926h227v-926zM694 -547h-227v926h227v-926z" />
    <glyph glyph-name="section" unicode="&#xa7;" horiz-adv-x="995" 
d="M872 162q0 -150 -109 -234t-304 -84q-219 0 -375 54l53 198q95 -34 165 -47.5t142 -13.5q183 0 183 121q0 52 -53 97.5t-173 100.5q-161 75 -221.5 146t-60.5 176q0 76 38 135t107 92q-57 35 -95 98.5t-38 157.5q0 152 102.5 234t288.5 82q134 0 312 -43l-48 -189
q-154 45 -266 45q-77 0 -113 -30.5t-36 -73.5q0 -57 47 -97t182 -98q155 -61 220 -132t65 -181q0 -84 -41 -154t-113 -108q80 -56 110.5 -112t30.5 -140zM653 645q0 38 -32 68t-138 80q-62 -7 -97.5 -35t-35.5 -68q0 -42 39.5 -75t120.5 -70q69 2 106 29.5t37 70.5z" />
    <glyph glyph-name="dieresis" unicode="&#xa8;" horiz-adv-x="1024" 
d="M139 1442q0 68 37.5 109.5t106.5 41.5q68 0 105.5 -40.5t37.5 -110.5q0 -71 -39 -112.5t-104 -41.5t-104.5 42t-39.5 112zM598 1442q0 68 37.5 109.5t105.5 41.5q69 0 106.5 -40.5t37.5 -110.5q0 -71 -39 -112.5t-105 -41.5q-65 0 -104 43t-39 111z" />
    <glyph glyph-name="copyright" unicode="&#xa9;" horiz-adv-x="1782" 
d="M143 727q0 199 100.5 373.5t274.5 274.5t373 100q196 0 368.5 -97.5t275.5 -272t103 -378.5q0 -203 -100.5 -375t-273 -272t-373.5 -100q-206 0 -380 104t-271 276t-97 367zM295 727q0 -161 79.5 -299t217.5 -217.5t299 -79.5t299 79.5t217.5 217.5t79.5 299t-79.5 299
t-217.5 217.5t-299 79.5t-299 -79.5t-217.5 -217.5t-79.5 -299zM1104 969q-103 39 -189 39q-87 0 -134.5 -67.5t-47.5 -199.5q0 -268 199 -268q52 0 115.5 11t107.5 28l37 -178q-140 -49 -272 -49q-214 0 -311 112t-97 344q0 213 101 332t286 119q119 0 254 -41z" />
    <glyph glyph-name="ordfeminine" unicode="&#xaa;" horiz-adv-x="926" 
d="M313 668q-109 0 -175 62t-66 165q0 137 89.5 199.5t301.5 62.5h92v39q0 63 -30.5 94t-104.5 31q-96 0 -219 -45l-51 151q152 48 299 48q169 0 249 -61t80 -191v-303q0 -40 24.5 -69.5t71.5 -45.5l-73 -154q-144 21 -215 94q-90 -51 -146.5 -64t-126.5 -13zM467 1024
q-95 0 -134.5 -27.5t-39.5 -91.5q0 -90 102 -90q94 0 168 51q-8 120 -8 158h-88z" />
    <glyph glyph-name="guillemotleft" unicode="&#xab;" horiz-adv-x="1276" 
d="M700 94h-286l-353 416v31l371 415h285l-391 -432zM1198 94h-287l-352 416v31l371 415h284l-391 -432z" />
    <glyph glyph-name="logicalnot" unicode="&#xac;" 
d="M1083 231h-225v359h-778v229h1003v-588z" />
    <glyph glyph-name="uni00AD" unicode="&#xad;" horiz-adv-x="768" 
d="M111 438v230h544v-230h-544z" />
    <glyph glyph-name="registered" unicode="&#xae;" horiz-adv-x="1262" 
d="M82 926q0 147 73.5 274.5t201 201t274.5 73.5t274.5 -73.5t201 -201t73.5 -274.5t-73.5 -274.5t-201 -201t-274.5 -73.5t-274.5 73.5t-201 201t-73.5 274.5zM211 926q0 -112 56 -209.5t153.5 -154t210.5 -56.5q112 0 209.5 56t154 153.5t56.5 210.5q0 112 -56 209.5
t-153.5 154t-210.5 56.5q-112 0 -209.5 -56t-154 -153.5t-56.5 -210.5zM850 1071q0 -60 -34.5 -105.5t-102.5 -58.5l178 -254h-135l-160 234h-39v-234h-125v561h227q191 0 191 -143zM725 1065q0 53 -107 53h-61v-137h33q76 0 105.5 18.5t29.5 65.5z" />
    <glyph glyph-name="macron" unicode="&#xaf;" horiz-adv-x="1024" 
d="M147 1329v182h727v-182h-727z" />
    <glyph glyph-name="degree" unicode="&#xb0;" horiz-adv-x="653" 
d="M57 1204q0 114 79.5 192.5t189.5 78.5q109 0 189.5 -78t80.5 -193q0 -114 -80.5 -191t-189.5 -77q-111 0 -190 77.5t-79 190.5zM205 1206q0 -50 36.5 -85.5t84.5 -35.5q50 0 87.5 36t37.5 85q0 51 -36 88t-89 37q-51 0 -86 -36.5t-35 -88.5z" />
    <glyph glyph-name="plusminus" unicode="&#xb1;" 
d="M692 690v-373h-227v373h-385v230h385v372h227v-372h391v-230h-391zM1083 229v-229h-1003v229h1003z" />
    <glyph glyph-name="uni00B2" unicode="&#xb2;" horiz-adv-x="684" 
d="M328 1475q136 0 203 -44.5t67 -138.5q0 -62 -36.5 -107t-160.5 -118q-108 -65 -132.5 -85t-24.5 -42v-4h381v-141h-559v88q0 82 37.5 138t142.5 118q75 41 114 70.5t39 64.5q0 32 -24 47.5t-64 15.5q-102 0 -178 -37l-45 132q122 43 240 43z" />
    <glyph glyph-name="uni00B3" unicode="&#xb3;" horiz-adv-x="684" 
d="M375 1276q0 63 -101 63q-84 0 -159 -30l-37 139q97 27 225 27q275 0 275 -162q0 -128 -142 -160q80 -15 125 -58t45 -104q0 -105 -74.5 -157t-230.5 -52q-145 0 -240 25l33 139q26 -9 81 -18.5t108 -9.5q120 0 120 81q0 43 -31 62.5t-108 19.5h-94v127h100q54 0 79.5 15
t25.5 53z" />
    <glyph glyph-name="acute" unicode="&#xb4;" horiz-adv-x="1024" 
d="M362 1298l193 322l279 -47v-49l-324 -277z" />
    <glyph glyph-name="mu" unicode="&#xb5;" horiz-adv-x="1221" 
d="M848 137q-53 -68 -90 -97t-81 -43.5t-97 -14.5q-80 0 -139 42l-17 11v-490l-270 -20v1573h270v-701q0 -98 46.5 -147t133.5 -49q94 0 203 86v811h270v-756q0 -71 24.5 -109.5t86.5 -52.5l-117 -198q-83 5 -137.5 41.5t-85.5 113.5z" />
    <glyph glyph-name="paragraph" unicode="&#xb6;" horiz-adv-x="1194" 
d="M1079 -289h-200v1569h-199v-1569h-201v824q-207 5 -307 116t-100 342q0 461 432 461h575v-1743z" />
    <glyph glyph-name="periodcentered" unicode="&#xb7;" horiz-adv-x="537" 
d="M104 559q0 67 49 115.5t115 48.5q67 0 115.5 -49t48.5 -115q0 -67 -49 -115.5t-115 -48.5q-67 0 -115.5 49t-48.5 115z" />
    <glyph glyph-name="cedilla" unicode="&#xb8;" horiz-adv-x="1024" 
d="M705 -266q0 -201 -234 -201q-103 0 -178 16l31 136q58 -13 114 -13q48 0 68 15.5t20 46.5q0 27 -14.5 42.5t-45.5 25t-128 22.5l125 176h162l-62 -88q68 -14 105 -59.5t37 -118.5z" />
    <glyph glyph-name="uni00B9" unicode="&#xb9;" horiz-adv-x="684" 
d="M82 1413l278 57h99v-534h162v-141h-525v141h174v383l-159 -39z" />
    <glyph glyph-name="ordmasculine" unicode="&#xba;" horiz-adv-x="979" 
d="M489 834q168 0 168 237q0 125 -42 180.5t-126 55.5q-90 0 -128.5 -60.5t-38.5 -175.5q0 -237 167 -237zM489 1475q198 0 305 -105t107 -301q0 -195 -106 -299t-306 -104q-197 0 -304 104.5t-107 298.5q0 195 107.5 300.5t303.5 105.5z" />
    <glyph glyph-name="guillemotright" unicode="&#xbb;" horiz-adv-x="1276" 
d="M559 956h285l370 -415v-31l-352 -416h-287l375 430zM61 956h285l371 -415v-31l-352 -416h-287l375 430z" />
    <glyph glyph-name="onequarter" unicode="&#xbc;" horiz-adv-x="1411" 
d="M44 1413l278 57h99v-534h162v-141h-525v141h174v383l-159 -39zM448 0h-188l702 1454h189zM1223 627l-299 -365h152v154h192v-154h105v-133h-105v-129h-192v129h-334v125l340 451z" />
    <glyph glyph-name="onehalf" unicode="&#xbd;" horiz-adv-x="1411" 
d="M44 1413l278 57h99v-534h162v-141h-525v141h174v383l-159 -39zM448 0h-188l702 1454h189zM1065 680q136 0 203 -44t67 -138q0 -63 -37 -108t-159 -118q-116 -70 -137 -87.5t-21 -39.5v-4h381v-141h-559v88q0 82 37.5 138t142.5 118q75 41 114.5 70.5t39.5 64.5
q0 64 -89 64q-102 0 -178 -37l-45 131q115 43 240 43z" />
    <glyph glyph-name="threequarters" unicode="&#xbe;" horiz-adv-x="1411" 
d="M377 1276q0 63 -101 63q-84 0 -159 -30l-37 139q97 27 225 27q275 0 275 -162q0 -128 -142 -160q80 -15 125 -58t45 -104q0 -105 -74.5 -157t-230.5 -52q-145 0 -240 25l33 139q26 -9 81 -18.5t108 -9.5q120 0 120 81q0 43 -31 62.5t-108 19.5h-94v127h100q54 0 79.5 15
t25.5 53zM448 0h-188l702 1454h189zM1223 627l-299 -365h152v154h192v-154h105v-133h-105v-129h-192v129h-334v125l340 451z" />
    <glyph glyph-name="questiondown" unicode="&#xbf;" horiz-adv-x="846" 
d="M664 952q0 -67 -49 -115.5t-115 -48.5q-67 0 -115.5 49t-48.5 115q0 67 49 115.5t115 48.5q67 0 115.5 -49t48.5 -115zM623 627q0 -147 -12.5 -207t-43.5 -109.5t-92 -103.5q-86 -76 -113.5 -117.5t-27.5 -101.5q0 -53 38.5 -85t116.5 -32q111 0 261 55l61 -233
q-116 -37 -197.5 -49.5t-164.5 -12.5q-176 0 -283 85t-107 229q0 117 38 201.5t143 172.5q72 61 99.5 99.5t38.5 86t11 122.5h234z" />
    <glyph glyph-name="Agrave" unicode="&#xc0;" horiz-adv-x="1284" 
d="M854 422h-436l-133 -422h-289l487 1454h320l487 -1454h-303zM782 655l-104 371q-15 50 -39 180q-31 -137 -47 -184l-107 -367h297zM641 1569l-383 203v49l274 47l242 -248z" />
    <glyph glyph-name="Aacute" unicode="&#xc1;" horiz-adv-x="1284" 
d="M854 422h-436l-133 -422h-289l487 1454h320l487 -1454h-303zM782 655l-104 371q-15 50 -39 180q-31 -137 -47 -184l-107 -367h297zM477 1620l242 248l274 -47v-49l-383 -203z" />
    <glyph glyph-name="Acircumflex" unicode="&#xc2;" horiz-adv-x="1284" 
d="M854 422h-436l-133 -422h-289l487 1454h320l487 -1454h-303zM782 655l-104 371q-15 50 -39 180q-31 -137 -47 -184l-107 -367h297zM856 1569l-217 168l-217 -168l-148 51l232 248h266l232 -248z" />
    <glyph glyph-name="Atilde" unicode="&#xc3;" horiz-adv-x="1284" 
d="M854 422h-436l-133 -422h-289l487 1454h320l487 -1454h-303zM782 655l-104 371q-15 50 -39 180q-31 -137 -47 -184l-107 -367h297zM797 1753q29 0 71 25t90 82l80 -156q-53 -56 -115 -89.5t-122 -33.5q-47 0 -89 15t-80.5 33t-73 33t-65.5 15q-69 0 -167 -108l-80 157
q73 70 127 95.5t106 25.5q42 0 81.5 -14.5t79 -32.5t78.5 -32.5t79 -14.5z" />
    <glyph glyph-name="Adieresis" unicode="&#xc4;" horiz-adv-x="1284" 
d="M854 422h-436l-133 -422h-289l487 1454h320l487 -1454h-303zM782 655l-104 371q-15 50 -39 180q-31 -137 -47 -184l-107 -367h297zM258 1722q0 69 38 110.5t105 41.5q69 0 106.5 -40.5t37.5 -111.5q0 -72 -39 -112.5t-105 -40.5q-64 0 -103.5 41.5t-39.5 111.5zM737 1722
q0 69 38 110.5t106 41.5t105.5 -41t37.5 -111q0 -72 -39 -112.5t-104 -40.5t-104.5 42t-39.5 111z" />
    <glyph glyph-name="Aring" unicode="&#xc5;" horiz-adv-x="1284" 
d="M854 422h-436l-133 -422h-289l487 1454h320l487 -1454h-303zM782 655l-104 371q-15 50 -39 180q-31 -137 -47 -184l-107 -367h297zM422 1554q0 90 61 152.5t152 62.5q92 0 154.5 -62.5t62.5 -152.5q0 -89 -62 -152t-155 -63q-91 0 -152 62t-61 153zM541 1552
q0 -42 28 -69t68 -27q43 0 70.5 27t27.5 69t-27.5 70t-70.5 28q-41 0 -68.5 -29t-27.5 -69z" />
    <glyph glyph-name="AE" unicode="&#xc6;" horiz-adv-x="1792" 
d="M836 0v422h-361l-199 -422h-288l694 1454h975v-244h-537v-338h479v-241h-479v-389h537v-242h-821zM836 655v596q-13 -42 -28 -83t-220 -513h248z" />
    <glyph glyph-name="Ccedilla" unicode="&#xc7;" horiz-adv-x="1229" 
d="M795 229q65 0 116 5.5t94 16t123 40.5l52 -238q-203 -73 -420 -73q-334 0 -496 181.5t-162 547.5q0 245 75.5 419.5t218 260.5t343.5 86q203 0 406 -64l-72 -248q-141 62 -321 62q-355 0 -355 -523q0 -233 103.5 -353t294.5 -120zM900 -266q0 -201 -234 -201
q-103 0 -178 16l31 136q58 -13 114 -13q48 0 68 15.5t20 46.5q0 27 -14.5 42.5t-45.5 25t-128 22.5l125 176h162l-62 -88q68 -14 105 -59.5t37 -118.5z" />
    <glyph glyph-name="Egrave" unicode="&#xc8;" horiz-adv-x="1137" 
d="M180 0v1454h821v-244h-536v-338h479v-241h-479v-389h536v-242h-821zM600 1569l-383 203v49l274 47l242 -248z" />
    <glyph glyph-name="Eacute" unicode="&#xc9;" horiz-adv-x="1137" 
d="M180 0v1454h821v-244h-536v-338h479v-241h-479v-389h536v-242h-821zM405 1620l242 248l274 -47v-49l-383 -203z" />
    <glyph glyph-name="Ecircumflex" unicode="&#xca;" horiz-adv-x="1137" 
d="M180 0v1454h821v-244h-536v-338h479v-241h-479v-389h536v-242h-821zM792 1569l-217 168l-217 -168l-148 51l232 248h266l232 -248z" />
    <glyph glyph-name="Edieresis" unicode="&#xcb;" horiz-adv-x="1137" 
d="M180 0v1454h821v-244h-536v-338h479v-241h-479v-389h536v-242h-821zM197 1722q0 69 38 110.5t105 41.5q69 0 106.5 -40.5t37.5 -111.5q0 -72 -39 -112.5t-105 -40.5q-64 0 -103.5 41.5t-39.5 111.5zM676 1722q0 69 38 110.5t106 41.5t105.5 -41t37.5 -111
q0 -72 -39 -112.5t-104 -40.5t-104.5 42t-39.5 111z" />
    <glyph glyph-name="Igrave" unicode="&#xcc;" horiz-adv-x="645" 
d="M180 0v1454h285v-1454h-285zM335 1569l-383 203v49l274 47l242 -248z" />
    <glyph glyph-name="Iacute" unicode="&#xcd;" horiz-adv-x="645" 
d="M180 0v1454h285v-1454h-285zM167 1620l242 248l274 -47v-49l-383 -203z" />
    <glyph glyph-name="Icircumflex" unicode="&#xce;" horiz-adv-x="645" 
d="M180 0v1454h285v-1454h-285zM542 1569l-217 168l-217 -168l-148 51l232 248h266l232 -248z" />
    <glyph glyph-name="Idieresis" unicode="&#xcf;" horiz-adv-x="645" 
d="M180 0v1454h285v-1454h-285zM-63 1722q0 69 38 110.5t105 41.5q69 0 106.5 -40.5t37.5 -111.5q0 -72 -39 -112.5t-105 -40.5q-64 0 -103.5 41.5t-39.5 111.5zM416 1722q0 69 38 110.5t106 41.5t105.5 -41t37.5 -111q0 -72 -39 -112.5t-104 -40.5t-104.5 42t-39.5 111z
" />
    <glyph glyph-name="Eth" unicode="&#xd0;" horiz-adv-x="1425" 
d="M1323 774q0 -373 -176.5 -573.5t-503.5 -200.5h-463v621h-149v229h149v604h459q332 0 508 -174.5t176 -505.5zM743 621h-278v-379h162q208 0 303.5 125t95.5 397q0 217 -98.5 331.5t-288.5 114.5h-174v-360h278v-229z" />
    <glyph glyph-name="Ntilde" unicode="&#xd1;" horiz-adv-x="1569" 
d="M1389 0h-388l-471 938q-35 72 -84 219l3 -81l4 -140v-936h-273v1454h387l465 -915q50 -117 90 -244q-6 132 -6 233v926h273v-1454zM934 1753q29 0 71 25t90 82l80 -156q-53 -56 -115 -89.5t-122 -33.5q-47 0 -89 15t-80.5 33t-73 33t-65.5 15q-69 0 -167 -108l-80 157
q73 70 127 95.5t106 25.5q42 0 81.5 -14.5t79 -32.5t78.5 -32.5t79 -14.5z" />
    <glyph glyph-name="Ograve" unicode="&#xd2;" horiz-adv-x="1460" 
d="M1358 721q0 -370 -159.5 -555.5t-467.5 -185.5q-199 0 -339.5 80t-215 247t-74.5 418q0 365 158 557.5t471 192.5t470 -192.5t157 -561.5zM1059 725q0 500 -332 500q-330 0 -330 -500q0 -498 330 -498q332 0 332 498zM764 1569l-383 203v49l274 47l242 -248z" />
    <glyph glyph-name="Oacute" unicode="&#xd3;" horiz-adv-x="1460" 
d="M1358 721q0 -370 -159.5 -555.5t-467.5 -185.5q-199 0 -339.5 80t-215 247t-74.5 418q0 365 158 557.5t471 192.5t470 -192.5t157 -561.5zM1059 725q0 500 -332 500q-330 0 -330 -500q0 -498 330 -498q332 0 332 498zM534 1620l242 248l274 -47v-49l-383 -203z" />
    <glyph glyph-name="Ocircumflex" unicode="&#xd4;" horiz-adv-x="1460" 
d="M1358 721q0 -370 -159.5 -555.5t-467.5 -185.5q-199 0 -339.5 80t-215 247t-74.5 418q0 365 158 557.5t471 192.5t470 -192.5t157 -561.5zM1059 725q0 500 -332 500q-330 0 -330 -500q0 -498 330 -498q332 0 332 498zM940 1569l-217 168l-217 -168l-148 51l232 248h266
l232 -248z" />
    <glyph glyph-name="Otilde" unicode="&#xd5;" horiz-adv-x="1460" 
d="M1358 721q0 -370 -159.5 -555.5t-467.5 -185.5q-199 0 -339.5 80t-215 247t-74.5 418q0 365 158 557.5t471 192.5t470 -192.5t157 -561.5zM1059 725q0 500 -332 500q-330 0 -330 -500q0 -498 330 -498q332 0 332 498zM889 1753q29 0 71 25t90 82l80 -156
q-53 -56 -115 -89.5t-122 -33.5q-47 0 -89 15t-80.5 33t-73 33t-65.5 15q-69 0 -167 -108l-80 157q73 70 127 95.5t106 25.5q42 0 81.5 -14.5t79 -32.5t78.5 -32.5t79 -14.5z" />
    <glyph glyph-name="Odieresis" unicode="&#xd6;" horiz-adv-x="1460" 
d="M1358 721q0 -370 -159.5 -555.5t-467.5 -185.5q-199 0 -339.5 80t-215 247t-74.5 418q0 365 158 557.5t471 192.5t470 -192.5t157 -561.5zM1059 725q0 500 -332 500q-330 0 -330 -500q0 -498 330 -498q332 0 332 498zM336 1722q0 69 38 110.5t105 41.5q69 0 106.5 -40.5
t37.5 -111.5q0 -72 -39 -112.5t-105 -40.5q-64 0 -103.5 41.5t-39.5 111.5zM815 1722q0 69 38 110.5t106 41.5t105.5 -41t37.5 -111q0 -72 -39 -112.5t-104 -40.5t-104.5 42t-39.5 111z" />
    <glyph glyph-name="multiply" unicode="&#xd7;" 
d="M422 707l-332 331l162 160l330 -330l331 330l162 -160l-332 -331l332 -330l-162 -160l-331 330l-330 -330l-162 160z" />
    <glyph glyph-name="Oslash" unicode="&#xd8;" horiz-adv-x="1460" 
d="M-8 -53l223 284q-113 184 -113 494q0 365 158 557.5t471 192.5q234 0 379 -107l111 139h225l-213 -270q125 -187 125 -516q0 -370 -159.5 -555.5t-467.5 -185.5q-245 0 -395 116l-119 -149h-225zM397 725q0 -137 23 -233l516 655q-82 78 -209 78q-330 0 -330 -500z
M1059 725q0 146 -31 254l-520 -664q78 -88 219 -88q332 0 332 498z" />
    <glyph glyph-name="Ugrave" unicode="&#xd9;" horiz-adv-x="1427" 
d="M1264 451q0 -145 -62.5 -250.5t-190 -163t-296.5 -57.5q-168 0 -295.5 56.5t-191.5 161t-64 253.5v1003h282v-995q0 -107 71.5 -170.5t199.5 -63.5q126 0 197 61t71 173v995h279v-1003zM752 1569l-383 203v49l274 47l242 -248z" />
    <glyph glyph-name="Uacute" unicode="&#xda;" horiz-adv-x="1427" 
d="M1264 451q0 -145 -62.5 -250.5t-190 -163t-296.5 -57.5q-168 0 -295.5 56.5t-191.5 161t-64 253.5v1003h282v-995q0 -107 71.5 -170.5t199.5 -63.5q126 0 197 61t71 173v995h279v-1003zM549 1620l242 248l274 -47v-49l-383 -203z" />
    <glyph glyph-name="Ucircumflex" unicode="&#xdb;" horiz-adv-x="1427" 
d="M1264 451q0 -145 -62.5 -250.5t-190 -163t-296.5 -57.5q-168 0 -295.5 56.5t-191.5 161t-64 253.5v1003h282v-995q0 -107 71.5 -170.5t199.5 -63.5q126 0 197 61t71 173v995h279v-1003zM936 1569l-217 168l-217 -168l-148 51l232 248h266l232 -248z" />
    <glyph glyph-name="Udieresis" unicode="&#xdc;" horiz-adv-x="1427" 
d="M1264 451q0 -145 -62.5 -250.5t-190 -163t-296.5 -57.5q-168 0 -295.5 56.5t-191.5 161t-64 253.5v1003h282v-995q0 -107 71.5 -170.5t199.5 -63.5q126 0 197 61t71 173v995h279v-1003zM340 1722q0 69 38 110.5t105 41.5q69 0 106.5 -40.5t37.5 -111.5q0 -72 -39 -112.5
t-105 -40.5q-64 0 -103.5 41.5t-39.5 111.5zM819 1722q0 69 38 110.5t106 41.5t105.5 -41t37.5 -111q0 -72 -39 -112.5t-104 -40.5t-104.5 42t-39.5 111z" />
    <glyph glyph-name="Yacute" unicode="&#xdd;" horiz-adv-x="1235" 
d="M0 1454h313l312 -645l293 645h317l-475 -893v-561h-285v563zM446 1620l242 248l274 -47v-49l-383 -203z" />
    <glyph glyph-name="Thorn" unicode="&#xde;" horiz-adv-x="1239" 
d="M1157 782q0 -239 -135.5 -367t-380.5 -128h-176v-287h-285v1454h285v-217h182q256 0 383 -116t127 -339zM872 778q0 106 -55.5 164.5t-163.5 58.5h-188v-479h160q111 0 179 69.5t68 186.5z" />
    <glyph glyph-name="germandbls" unicode="&#xdf;" horiz-adv-x="1339" 
d="M565 788q0 61 20 109.5t55 88.5t114 95q67 45 91.5 78.5t24.5 69.5q0 62 -47 94.5t-153 32.5q-128 0 -188 -66.5t-60 -197.5v-1092h-268v1116q0 226 126.5 341.5t381.5 115.5q232 0 353.5 -81.5t121.5 -236.5q0 -88 -29.5 -146.5t-120.5 -127.5q-88 -64 -109.5 -83.5
t-34 -38.5t-12.5 -40q0 -30 15.5 -48.5t56 -42.5t107.5 -56q125 -60 182 -143t57 -214q0 -161 -102 -248t-301 -87q-102 0 -183 11.5t-163 41.5l53 227q149 -61 291 -61q139 0 139 96q0 58 -42.5 98.5t-137.5 87.5q-123 60 -180.5 132.5t-57.5 174.5z" />
    <glyph glyph-name="agrave" unicode="&#xe0;" horiz-adv-x="1110" 
d="M387 -20q-133 0 -215 85t-82 234q0 199 112.5 285t370.5 86h115v69q0 88 -38 131t-130 43q-125 0 -270 -61l-64 199q190 65 369 65q210 0 306.5 -84t96.5 -270v-426q0 -113 119 -162l-92 -217q-94 15 -154.5 48.5t-103.5 84.5q-107 -69 -175.5 -89.5t-164.5 -20.5z
M580 494q-122 0 -173 -41t-51 -140q0 -137 127 -137q123 0 215 72q-10 157 -10 246h-108zM541 1247l-324 277v49l279 47l192 -322z" />
    <glyph glyph-name="aacute" unicode="&#xe1;" horiz-adv-x="1110" 
d="M387 -20q-133 0 -215 85t-82 234q0 199 112.5 285t370.5 86h115v69q0 88 -38 131t-130 43q-125 0 -270 -61l-64 199q190 65 369 65q210 0 306.5 -84t96.5 -270v-426q0 -113 119 -162l-92 -217q-94 15 -154.5 48.5t-103.5 84.5q-107 -69 -175.5 -89.5t-164.5 -20.5z
M580 494q-122 0 -173 -41t-51 -140q0 -137 127 -137q123 0 215 72q-10 157 -10 246h-108zM380 1298l193 322l279 -47v-49l-324 -277z" />
    <glyph glyph-name="acircumflex" unicode="&#xe2;" horiz-adv-x="1110" 
d="M387 -20q-133 0 -215 85t-82 234q0 199 112.5 285t370.5 86h115v69q0 88 -38 131t-130 43q-125 0 -270 -61l-64 199q190 65 369 65q210 0 306.5 -84t96.5 -270v-426q0 -113 119 -162l-92 -217q-94 15 -154.5 48.5t-103.5 84.5q-107 -69 -175.5 -89.5t-164.5 -20.5z
M580 494q-122 0 -173 -41t-51 -140q0 -137 127 -137q123 0 215 72q-10 157 -10 246h-108zM772 1247l-217 228l-217 -228l-148 51l232 322h266l232 -322z" />
    <glyph glyph-name="atilde" unicode="&#xe3;" horiz-adv-x="1110" 
d="M387 -20q-133 0 -215 85t-82 234q0 199 112.5 285t370.5 86h115v69q0 88 -38 131t-130 43q-125 0 -270 -61l-64 199q190 65 369 65q210 0 306.5 -84t96.5 -270v-426q0 -113 119 -162l-92 -217q-94 15 -154.5 48.5t-103.5 84.5q-107 -69 -175.5 -89.5t-164.5 -20.5z
M580 494q-122 0 -173 -41t-51 -140q0 -137 127 -137q123 0 215 72q-10 157 -10 246h-108zM709 1489q29 0 71 28t90 85l80 -170q-53 -56 -115 -89.5t-122 -33.5q-47 0 -89 15t-80.5 33t-73 33t-65.5 15t-68 -24t-99 -91l-80 172q73 70 127 95.5t106 25.5q42 0 81.5 -14.5
t79 -32.5t78.5 -32.5t79 -14.5z" />
    <glyph glyph-name="adieresis" unicode="&#xe4;" horiz-adv-x="1110" 
d="M387 -20q-133 0 -215 85t-82 234q0 199 112.5 285t370.5 86h115v69q0 88 -38 131t-130 43q-125 0 -270 -61l-64 199q190 65 369 65q210 0 306.5 -84t96.5 -270v-426q0 -113 119 -162l-92 -217q-94 15 -154.5 48.5t-103.5 84.5q-107 -69 -175.5 -89.5t-164.5 -20.5z
M580 494q-122 0 -173 -41t-51 -140q0 -137 127 -137q123 0 215 72q-10 157 -10 246h-108zM182 1442q0 68 37.5 109.5t106.5 41.5q68 0 105.5 -40.5t37.5 -110.5q0 -71 -39 -112.5t-104 -41.5t-104.5 42t-39.5 112zM641 1442q0 68 37.5 109.5t105.5 41.5q69 0 106.5 -40.5
t37.5 -110.5q0 -71 -39 -112.5t-105 -41.5q-65 0 -104 43t-39 111z" />
    <glyph glyph-name="aring" unicode="&#xe5;" horiz-adv-x="1110" 
d="M387 -20q-133 0 -215 85t-82 234q0 199 112.5 285t370.5 86h115v69q0 88 -38 131t-130 43q-125 0 -270 -61l-64 199q190 65 369 65q210 0 306.5 -84t96.5 -270v-426q0 -113 119 -162l-92 -217q-94 15 -154.5 48.5t-103.5 84.5q-107 -69 -175.5 -89.5t-164.5 -20.5z
M580 494q-122 0 -173 -41t-51 -140q0 -137 127 -137q123 0 215 72q-10 157 -10 246h-108zM301 1501q0 106 73.5 180t178.5 74t180.5 -74t75.5 -180t-75.5 -180t-180.5 -74t-178.5 74t-73.5 180zM442 1499q0 -47 32 -81t81 -34q48 0 82.5 32.5t34.5 82.5q0 51 -34 83t-83 32
t-81 -33.5t-32 -81.5z" />
    <glyph glyph-name="ae" unicode="&#xe6;" horiz-adv-x="1696" 
d="M387 -20q-133 0 -215 85t-82 234q0 198 112 288.5t371 90.5h115v61q0 88 -38 131t-130 43q-125 0 -270 -61l-64 199q190 65 369 65q109 0 191.5 -29t123.5 -102q46 64 118 97.5t186 33.5q217 0 321 -127t104 -397v-92h-641q0 -156 67 -234t210 -78q72 0 161 17.5
t165 48.5l51 -203q-193 -76 -420 -76q-276 0 -399 156q-85 -78 -182 -114.5t-224 -36.5zM723 256q-16 36 -27.5 100.5t-15.5 145.5h-100q-117 0 -170.5 -43t-53.5 -146q0 -137 127 -137q62 0 125.5 20.5t114.5 59.5zM1339 678q0 128 -41.5 186t-128.5 58q-94 0 -147 -63
t-64 -181h381z" />
    <glyph glyph-name="ccedilla" unicode="&#xe7;" horiz-adv-x="987" 
d="M831 840q-55 20 -110.5 34.5t-124.5 14.5q-109 0 -167 -85t-58 -255q0 -175 61 -258.5t184 -83.5q67 0 150 15t129 34l45 -219q-82 -31 -173.5 -46.5t-162.5 -15.5q-182 0 -289.5 60t-163 186.5t-55.5 327.5q0 268 124.5 417.5t357.5 149.5q155 0 315 -51zM732 -266
q0 -201 -234 -201q-103 0 -178 16l31 136q58 -13 114 -13q48 0 68 15.5t20 46.5q0 27 -14.5 42.5t-45.5 25t-128 22.5l125 176h162l-62 -88q68 -14 105 -59.5t37 -118.5z" />
    <glyph glyph-name="egrave" unicode="&#xe8;" horiz-adv-x="1112" 
d="M1016 500h-641q0 -156 67 -234t209 -78q75 0 168 19t158 47l51 -203q-193 -76 -420 -76q-512 0 -512 555q0 283 128.5 434.5t365.5 151.5q217 0 321.5 -127t104.5 -397v-92zM756 678q0 128 -41.5 186t-128.5 58q-94 0 -147 -63t-64 -181h381zM582 1247l-324 277v49
l279 47l192 -322z" />
    <glyph glyph-name="eacute" unicode="&#xe9;" horiz-adv-x="1112" 
d="M1016 500h-641q0 -156 67 -234t209 -78q75 0 168 19t158 47l51 -203q-193 -76 -420 -76q-512 0 -512 555q0 283 128.5 434.5t365.5 151.5q217 0 321.5 -127t104.5 -397v-92zM756 678q0 128 -41.5 186t-128.5 58q-94 0 -147 -63t-64 -181h381zM454 1298l193 322l279 -47
v-49l-324 -277z" />
    <glyph glyph-name="ecircumflex" unicode="&#xea;" horiz-adv-x="1112" 
d="M1016 500h-641q0 -156 67 -234t209 -78q75 0 168 19t158 47l51 -203q-193 -76 -420 -76q-512 0 -512 555q0 283 128.5 434.5t365.5 151.5q217 0 321.5 -127t104.5 -397v-92zM756 678q0 128 -41.5 186t-128.5 58q-94 0 -147 -63t-64 -181h381zM805 1247l-217 228
l-217 -228l-148 51l232 322h266l232 -322z" />
    <glyph glyph-name="edieresis" unicode="&#xeb;" horiz-adv-x="1112" 
d="M1016 500h-641q0 -156 67 -234t209 -78q75 0 168 19t158 47l51 -203q-193 -76 -420 -76q-512 0 -512 555q0 283 128.5 434.5t365.5 151.5q217 0 321.5 -127t104.5 -397v-92zM756 678q0 128 -41.5 186t-128.5 58q-94 0 -147 -63t-64 -181h381zM215 1442q0 68 37.5 109.5
t106.5 41.5q68 0 105.5 -40.5t37.5 -110.5q0 -71 -39 -112.5t-104 -41.5t-104.5 42t-39.5 112zM674 1442q0 68 37.5 109.5t105.5 41.5q69 0 106.5 -40.5t37.5 -110.5q0 -71 -39 -112.5t-105 -41.5q-65 0 -104 43t-39 111z" />
    <glyph glyph-name="igrave" unicode="&#xec;" horiz-adv-x="578" 
d="M154 0v1098h270v-1098h-270zM308 1247l-324 277v49l279 47l192 -322z" />
    <glyph glyph-name="iacute" unicode="&#xed;" horiz-adv-x="578" 
d="M154 0v1098h270v-1098h-270zM132 1298l193 322l279 -47v-49l-324 -277z" />
    <glyph glyph-name="icircumflex" unicode="&#xee;" horiz-adv-x="578" 
d="M154 0v1098h270v-1098h-270zM507 1247l-217 228l-217 -228l-148 51l232 322h266l232 -322z" />
    <glyph glyph-name="idieresis" unicode="&#xef;" horiz-adv-x="578" 
d="M154 0v1098h270v-1098h-270zM-83 1442q0 68 37.5 109.5t106.5 41.5q68 0 105.5 -40.5t37.5 -110.5q0 -71 -39 -112.5t-104 -41.5t-104.5 42t-39.5 112zM376 1442q0 68 37.5 109.5t105.5 41.5q69 0 106.5 -40.5t37.5 -110.5q0 -71 -39 -112.5t-105 -41.5q-65 0 -104 43
t-39 111z" />
    <glyph glyph-name="eth" unicode="&#xf0;" horiz-adv-x="1204" 
d="M297 1233l137 86q-116 40 -248 51l23 203q260 -28 440 -119l260 164v-152l-139 -88q177 -135 257.5 -336t80.5 -495q0 -270 -132.5 -418.5t-373.5 -148.5q-244 0 -375 138t-131 398q0 258 124.5 398.5t350.5 140.5q60 0 118.5 -18t92.5 -48q-22 76 -77.5 145t-133.5 119
l-274 -174v154zM602 203q221 0 221 315q0 160 -54 236.5t-167 76.5q-112 0 -166.5 -75.5t-54.5 -237.5q0 -315 221 -315z" />
    <glyph glyph-name="ntilde" unicode="&#xf1;" horiz-adv-x="1221" 
d="M1077 0h-270v717q0 180 -156 180q-115 0 -227 -86v-811h-270v1098h225l29 -92q92 60 172 85t170 25q93 0 167.5 -41.5t117 -120.5t42.5 -188v-766zM750 1489q29 0 71 28t90 85l80 -170q-53 -56 -115 -89.5t-122 -33.5q-47 0 -89 15t-80.5 33t-73 33t-65.5 15t-68 -24
t-99 -91l-80 172q73 70 127 95.5t106 25.5q42 0 81.5 -14.5t79 -32.5t78.5 -32.5t79 -14.5z" />
    <glyph glyph-name="ograve" unicode="&#xf2;" horiz-adv-x="1204" 
d="M602 203q112 0 166.5 83.5t54.5 262.5q0 183 -53.5 263.5t-167.5 80.5q-113 0 -167 -80t-54 -264q0 -178 55 -262t166 -84zM602 -20q-245 0 -375.5 146.5t-130.5 420.5t130 421.5t376 147.5t376 -147.5t130 -421.5q0 -277 -131 -422t-375 -145zM588 1247l-324 277v49
l279 47l192 -322z" />
    <glyph glyph-name="oacute" unicode="&#xf3;" horiz-adv-x="1204" 
d="M602 203q112 0 166.5 83.5t54.5 262.5q0 183 -53.5 263.5t-167.5 80.5q-113 0 -167 -80t-54 -264q0 -178 55 -262t166 -84zM602 -20q-245 0 -375.5 146.5t-130.5 420.5t130 421.5t376 147.5t376 -147.5t130 -421.5q0 -277 -131 -422t-375 -145zM448 1298l193 322l279 -47
v-49l-324 -277z" />
    <glyph glyph-name="ocircumflex" unicode="&#xf4;" horiz-adv-x="1204" 
d="M602 203q112 0 166.5 83.5t54.5 262.5q0 183 -53.5 263.5t-167.5 80.5q-113 0 -167 -80t-54 -264q0 -178 55 -262t166 -84zM602 -20q-245 0 -375.5 146.5t-130.5 420.5t130 421.5t376 147.5t376 -147.5t130 -421.5q0 -277 -131 -422t-375 -145zM819 1247l-217 228
l-217 -228l-148 51l232 322h266l232 -322z" />
    <glyph glyph-name="otilde" unicode="&#xf5;" horiz-adv-x="1204" 
d="M602 203q112 0 166.5 83.5t54.5 262.5q0 183 -53.5 263.5t-167.5 80.5q-113 0 -167 -80t-54 -264q0 -178 55 -262t166 -84zM602 -20q-245 0 -375.5 146.5t-130.5 420.5t130 421.5t376 147.5t376 -147.5t130 -421.5q0 -277 -131 -422t-375 -145zM756 1489q29 0 71 28
t90 85l80 -170q-53 -56 -115 -89.5t-122 -33.5q-47 0 -89 15t-80.5 33t-73 33t-65.5 15t-68 -24t-99 -91l-80 172q73 70 127 95.5t106 25.5q42 0 81.5 -14.5t79 -32.5t78.5 -32.5t79 -14.5z" />
    <glyph glyph-name="odieresis" unicode="&#xf6;" horiz-adv-x="1204" 
d="M602 203q112 0 166.5 83.5t54.5 262.5q0 183 -53.5 263.5t-167.5 80.5q-113 0 -167 -80t-54 -264q0 -178 55 -262t166 -84zM602 -20q-245 0 -375.5 146.5t-130.5 420.5t130 421.5t376 147.5t376 -147.5t130 -421.5q0 -277 -131 -422t-375 -145zM229 1442q0 68 37.5 109.5
t106.5 41.5q68 0 105.5 -40.5t37.5 -110.5q0 -71 -39 -112.5t-104 -41.5t-104.5 42t-39.5 112zM688 1442q0 68 37.5 109.5t105.5 41.5q69 0 106.5 -40.5t37.5 -110.5q0 -71 -39 -112.5t-105 -41.5q-65 0 -104 43t-39 111z" />
    <glyph glyph-name="divide" unicode="&#xf7;" 
d="M418 283q0 68 49 115.5t115 47.5q67 0 115 -48t48 -115q0 -66 -47.5 -115t-115.5 -49q-67 0 -115.5 49t-48.5 115zM80 590v229h1003v-229h-1003zM418 1126q0 69 49.5 116.5t114.5 47.5q67 0 115 -48t48 -116q0 -67 -48 -115t-115 -48q-66 0 -115 47.5t-49 115.5z" />
    <glyph glyph-name="oslash" unicode="&#xf8;" horiz-adv-x="1204" 
d="M49 -53l160 200q-113 147 -113 400q0 274 130 421.5t376 147.5q184 0 305 -86l82 103h172l-157 -199q104 -145 104 -387q0 -277 -131 -422t-375 -145q-176 0 -295 75l-86 -108h-172zM602 203q112 0 166.5 83.5t54.5 262.5q0 81 -10 143l-350 -440q52 -49 139 -49z
M381 549q0 -103 14 -164l357 449q-53 59 -150 59q-113 0 -167 -80t-54 -264z" />
    <glyph glyph-name="ugrave" unicode="&#xf9;" horiz-adv-x="1221" 
d="M143 1098h271v-719q0 -180 155 -180q116 0 228 88v811h270v-1098h-225l-29 92q-95 -62 -176.5 -87t-165.5 -25q-95 0 -170 42.5t-116.5 121.5t-41.5 186v768zM617 1247l-324 277v49l279 47l192 -322z" />
    <glyph glyph-name="uacute" unicode="&#xfa;" horiz-adv-x="1221" 
d="M143 1098h271v-719q0 -180 155 -180q116 0 228 88v811h270v-1098h-225l-29 92q-95 -62 -176.5 -87t-165.5 -25q-95 0 -170 42.5t-116.5 121.5t-41.5 186v768zM436 1298l193 322l279 -47v-49l-324 -277z" />
    <glyph glyph-name="ucircumflex" unicode="&#xfb;" horiz-adv-x="1221" 
d="M143 1098h271v-719q0 -180 155 -180q116 0 228 88v811h270v-1098h-225l-29 92q-95 -62 -176.5 -87t-165.5 -25q-95 0 -170 42.5t-116.5 121.5t-41.5 186v768zM827 1247l-217 228l-217 -228l-148 51l232 322h266l232 -322z" />
    <glyph glyph-name="udieresis" unicode="&#xfc;" horiz-adv-x="1221" 
d="M143 1098h271v-719q0 -180 155 -180q116 0 228 88v811h270v-1098h-225l-29 92q-95 -62 -176.5 -87t-165.5 -25q-95 0 -170 42.5t-116.5 121.5t-41.5 186v768zM237 1442q0 68 37.5 109.5t106.5 41.5q68 0 105.5 -40.5t37.5 -110.5q0 -71 -39 -112.5t-104 -41.5t-104.5 42
t-39.5 112zM696 1442q0 68 37.5 109.5t105.5 41.5q69 0 106.5 -40.5t37.5 -110.5q0 -71 -39 -112.5t-105 -41.5q-65 0 -104 43t-39 111z" />
    <glyph glyph-name="yacute" unicode="&#xfd;" horiz-adv-x="1098" 
d="M170 -305q56 44 96.5 85.5t71.5 86t74 133.5l-412 1098h293l256 -783l256 783h293l-430 -1147q-51 -137 -134.5 -246.5t-195.5 -177.5zM415 1298l193 322l279 -47v-49l-324 -277z" />
    <glyph glyph-name="thorn" unicode="&#xfe;" horiz-adv-x="1198" 
d="M424 1006q69 64 134.5 87t150.5 23q200 0 296.5 -138t96.5 -417q0 -275 -133 -428t-369 -153q-94 0 -174 10v-445l-272 -20v2027l270 21v-567zM823 561q0 177 -44.5 256.5t-149.5 79.5q-51 0 -109.5 -25.5t-95.5 -60.5v-586q68 -30 178 -30q104 0 162.5 90t58.5 276z" />
    <glyph glyph-name="ydieresis" unicode="&#xff;" horiz-adv-x="1098" 
d="M170 -305q56 44 96.5 85.5t71.5 86t74 133.5l-412 1098h293l256 -783l256 783h293l-430 -1147q-51 -137 -134.5 -246.5t-195.5 -177.5zM176 1442q0 68 37.5 109.5t106.5 41.5q68 0 105.5 -40.5t37.5 -110.5q0 -71 -39 -112.5t-104 -41.5t-104.5 42t-39.5 112zM635 1442
q0 68 37.5 109.5t105.5 41.5q69 0 106.5 -40.5t37.5 -110.5q0 -71 -39 -112.5t-105 -41.5q-65 0 -104 43t-39 111z" />
    <glyph glyph-name="dotlessi" unicode="&#x131;" horiz-adv-x="578" 
d="M154 0v1098h270v-1098h-270z" />
    <glyph glyph-name="OE" unicode="&#x152;" horiz-adv-x="1819" 
d="M985 0q-120 -15 -163.5 -17.5t-90.5 -2.5q-312 0 -470.5 190.5t-158.5 556.5q0 365 159 556.5t470 191.5q136 0 307 -21h645v-244h-536v-338h479v-241h-479v-389h536v-242h-698zM727 227q83 0 135 15v968q-62 17 -135 17q-330 0 -330 -500t330 -500z" />
    <glyph glyph-name="oe" unicode="&#x153;" horiz-adv-x="1839" 
d="M1743 500h-641q0 -160 69.5 -236t206.5 -76q75 0 168 19t158 47l51 -203q-193 -76 -420 -76q-249 0 -377 166q-131 -161 -356 -161q-245 0 -375.5 146.5t-130.5 420.5t130 421.5t376 147.5q232 0 365 -168q129 168 350 168q217 0 321.5 -127t104.5 -397v-92zM602 203
q112 0 166.5 83.5t54.5 262.5q0 183 -53.5 263.5t-167.5 80.5q-113 0 -167 -80t-54 -264q0 -178 55 -262t166 -84zM1483 678q0 128 -41.5 186t-128.5 58q-94 0 -147 -63t-64 -181h381z" />
    <glyph glyph-name="Scaron" unicode="&#x160;" horiz-adv-x="1130" 
d="M1047 420q0 -203 -130.5 -321.5t-363.5 -118.5q-274 0 -479 63l59 268q99 -41 209.5 -65.5t208.5 -24.5q102 0 158.5 45.5t56.5 120.5q0 55 -24 89t-80 68.5t-199 100.5q-206 95 -286.5 192t-80.5 257q0 177 131 279t363 102q96 0 205 -18t192 -42l-61 -256l-78 25
q-145 47 -254 47q-105 0 -161 -33.5t-56 -97.5q0 -63 69 -114t248 -130q189 -84 271 -182.5t82 -253.5zM932 1817l-232 -248h-266l-232 248l148 51l217 -168l217 168z" />
    <glyph glyph-name="scaron" unicode="&#x161;" horiz-adv-x="944" 
d="M858 315q0 -160 -98.5 -247.5t-306.5 -87.5q-232 0 -385 53l53 227q163 -61 317 -61q86 0 120 24t34 68q0 38 -19 60.5t-62.5 47t-135.5 62.5q-154 63 -218.5 140t-64.5 194q0 161 99 241t305 80q155 0 311 -43l-47 -221q-168 47 -266 47q-150 0 -150 -86q0 -41 44 -73
t185 -89q157 -63 221 -138.5t64 -197.5zM829 1569l-232 -322h-266l-232 322l148 51l217 -227l217 227z" />
    <glyph glyph-name="Ydieresis" unicode="&#x178;" horiz-adv-x="1235" 
d="M0 1454h313l312 -645l293 645h317l-475 -893v-561h-285v563zM233 1722q0 69 38 110.5t105 41.5q69 0 106.5 -40.5t37.5 -111.5q0 -72 -39 -112.5t-105 -40.5q-64 0 -103.5 41.5t-39.5 111.5zM712 1722q0 69 38 110.5t106 41.5t105.5 -41t37.5 -111q0 -72 -39 -112.5
t-104 -40.5t-104.5 42t-39.5 111z" />
    <glyph glyph-name="Zcaron" unicode="&#x17d;" horiz-adv-x="1260" 
d="M1180 0h-1106v178l704 1032h-663v244h1024v-168l-697 -1044h738v-242zM996 1817l-232 -248h-266l-232 248l148 51l217 -168l217 168z" />
    <glyph glyph-name="zcaron" unicode="&#x17e;" horiz-adv-x="983" 
d="M72 0v154l475 735h-449v209h795v-154l-479 -735h497v-209h-839zM866 1569l-232 -322h-266l-232 322l148 51l217 -227l217 227z" />
    <glyph glyph-name="florin" unicode="&#x192;" 
d="M825 1573q152 0 293 -41l-59 -207q-110 29 -174 29q-116 0 -144 -152l-61 -346h285l-37 -209h-285l-194 -1122h-275l199 1122h-166l29 160l174 43l71 401q55 322 344 322z" />
    <glyph glyph-name="uni0237" unicode="&#x237;" horiz-adv-x="578" 
d="M-72 -291q105 58 166.5 131.5t61.5 194.5l-2 1063h270v-1098q0 -354 -383 -475z" />
    <glyph glyph-name="circumflex" unicode="&#x2c6;" horiz-adv-x="1024" 
d="M729 1247l-217 228l-217 -228l-148 51l232 322h266l232 -322z" />
    <glyph glyph-name="caron" unicode="&#x2c7;" horiz-adv-x="1024" 
d="M877 1569l-232 -322h-266l-232 322l148 51l217 -227l217 227z" />
    <glyph glyph-name="ring" unicode="&#x2da;" horiz-adv-x="1024" 
d="M258 1501q0 106 73.5 180t178.5 74t180.5 -74t75.5 -180t-75.5 -180t-180.5 -74t-178.5 74t-73.5 180zM399 1499q0 -47 32 -81t81 -34q48 0 82.5 32.5t34.5 82.5q0 51 -34 83t-83 32t-81 -33.5t-32 -81.5z" />
    <glyph glyph-name="tilde" unicode="&#x2dc;" horiz-adv-x="1024" 
d="M666 1489q29 0 71 28t90 85l80 -170q-53 -56 -115 -89.5t-122 -33.5q-47 0 -89 15t-80.5 33t-73 33t-65.5 15t-68 -24t-99 -91l-80 172q73 70 127 95.5t106 25.5q42 0 81.5 -14.5t79 -32.5t78.5 -32.5t79 -14.5z" />
    <glyph glyph-name="endash" unicode="&#x2013;" horiz-adv-x="1024" 
d="M98 438v230h824v-230h-824z" />
    <glyph glyph-name="emdash" unicode="&#x2014;" horiz-adv-x="2048" 
d="M98 438v230h1848v-230h-1848z" />
    <glyph glyph-name="quoteleft" unicode="&#x2018;" horiz-adv-x="479" 
d="M41 946l221 508h189l-121 -577h-260z" />
    <glyph glyph-name="quoteright" unicode="&#x2019;" horiz-adv-x="479" 
d="M438 1384l-221 -507h-188l121 577h260z" />
    <glyph glyph-name="quotesinglbase" unicode="&#x201a;" horiz-adv-x="479" 
d="M438 240l-221 -508h-188l121 577h260z" />
    <glyph glyph-name="quotedblleft" unicode="&#x201c;" horiz-adv-x="932" 
d="M494 946l221 508h188l-121 -577h-260zM41 946l221 508h189l-121 -577h-260z" />
    <glyph glyph-name="quotedblright" unicode="&#x201d;" horiz-adv-x="932" 
d="M438 1384l-221 -507h-188l121 577h260zM891 1384l-221 -507h-189l121 577h260z" />
    <glyph glyph-name="quotedblbase" unicode="&#x201e;" horiz-adv-x="932" 
d="M438 240l-221 -508h-188l121 577h260zM891 240l-221 -508h-189l121 577h260z" />
    <glyph glyph-name="dagger" unicode="&#x2020;" horiz-adv-x="1004" 
d="M385 -135v975h-324v229h324v385h227v-385h330v-229h-330v-975h-227z" />
    <glyph glyph-name="daggerdbl" unicode="&#x2021;" horiz-adv-x="1004" 
d="M385 840h-324v229h324v385h227v-385h330v-229h-330v-303h330v-230h-330v-442h-227v442h-324v230h324v303z" />
    <glyph glyph-name="bullet" unicode="&#x2022;" horiz-adv-x="803" 
d="M676 686q0 -113 -80.5 -193.5t-194.5 -80.5q-113 0 -193.5 80.5t-80.5 193.5q0 116 81.5 196.5t192.5 80.5q112 0 193.5 -80.5t81.5 -196.5z" />
    <glyph glyph-name="ellipsis" unicode="&#x2026;" horiz-adv-x="1610" 
d="M104 154q0 68 49 115.5t115 47.5t115 -47.5t49 -115.5q0 -69 -49.5 -116.5t-114.5 -47.5q-66 0 -115 47.5t-49 116.5zM641 154q0 68 49 115.5t115 47.5t115 -47.5t49 -115.5q0 -69 -49.5 -116.5t-114.5 -47.5q-66 0 -115 47.5t-49 116.5zM1178 154q0 67 48 115t115 48
q68 0 116 -48t48 -115q0 -68 -48 -116t-116 -48q-67 0 -115 48t-48 116z" />
    <glyph glyph-name="perthousand" unicode="&#x2030;" horiz-adv-x="2111" 
d="M655 1128q0 -178 -70.5 -262t-219.5 -84q-148 0 -219.5 83.5t-71.5 262.5t71.5 263t219.5 84q152 0 221 -86t69 -261zM471 0h-188l702 1454h189zM457 1128q0 118 -20.5 161.5t-71.5 43.5q-54 0 -73.5 -45t-19.5 -160t19.5 -159.5t73.5 -44.5q50 0 71 43t21 161zM1382 326
q0 -176 -69.5 -261t-220.5 -85q-150 0 -220.5 84t-70.5 262t71.5 262t219.5 84q152 0 221 -86t69 -260zM1184 326q0 116 -20.5 160t-71.5 44q-54 0 -73.5 -45t-19.5 -159q0 -116 20 -160.5t73 -44.5q50 0 71 43t21 162zM2038 326q0 -174 -69.5 -260t-221.5 -86
q-150 0 -220.5 84t-70.5 262t71.5 262t219.5 84q150 0 220.5 -84.5t70.5 -261.5zM1839 326q0 115 -19.5 159.5t-72.5 44.5q-52 0 -72 -41t-20 -163t20 -163.5t72 -41.5q53 0 72.5 46t19.5 159z" />
    <glyph glyph-name="guilsinglleft" unicode="&#x2039;" horiz-adv-x="778" 
d="M700 94h-286l-353 416v31l371 415h285l-391 -432z" />
    <glyph glyph-name="guilsinglright" unicode="&#x203a;" horiz-adv-x="778" 
d="M61 956h285l371 -415v-31l-352 -416h-287l375 430z" />
    <glyph glyph-name="fraction" unicode="&#x2044;" horiz-adv-x="428" 
d="M-39 0h-188l702 1454h189z" />
    <glyph glyph-name="Euro" unicode="&#x20ac;" 
d="M39 942h164q42 260 183.5 396.5t371.5 136.5q95 0 197 -18t169 -42l-65 -227q-138 53 -287 53q-230 0 -291 -299h389v-164h-405l-2 -33v-94h407v-164h-385q34 -137 118 -206.5t210 -69.5q70 0 129 8.5t166 42.5l51 -215q-185 -67 -381 -67q-248 0 -392.5 123.5
t-184.5 383.5h-162v164h145v127h-145v164z" />
    <glyph glyph-name="trademark" unicode="&#x2122;" horiz-adv-x="1206" 
d="M1016 836v397l-127 -397h-103l-127 397v-397h-122v618h168l129 -442h8l129 442h168v-618h-123zM305 1339v-503h-129v503h-170v115h469v-115h-170z" />
    <glyph glyph-name="glyph222" horiz-adv-x="1024" 
d="M539 1569l-383 203v49l274 47l242 -248z" />
    <glyph glyph-name="glyph223" horiz-adv-x="1024" 
d="M303 1620l242 248l274 -47v-49l-383 -203z" />
    <glyph glyph-name="glyph224" horiz-adv-x="1024" 
d="M729 1569l-217 168l-217 -168l-148 51l232 248h266l232 -248z" />
    <glyph glyph-name="glyph225" horiz-adv-x="1024" 
d="M666 1753q29 0 71 25t90 82l80 -156q-53 -56 -115 -89.5t-122 -33.5q-47 0 -89 15t-80.5 33t-73 33t-65.5 15q-69 0 -167 -108l-80 157q73 70 127 95.5t106 25.5q42 0 81.5 -14.5t79 -32.5t78.5 -32.5t79 -14.5z" />
    <glyph glyph-name="glyph226" horiz-adv-x="1024" 
d="M129 1722q0 69 38 110.5t105 41.5q69 0 106.5 -40.5t37.5 -111.5q0 -72 -39 -112.5t-105 -40.5q-64 0 -103.5 41.5t-39.5 111.5zM608 1722q0 69 38 110.5t106 41.5t105.5 -41t37.5 -111q0 -72 -39 -112.5t-104 -40.5t-104.5 42t-39.5 111z" />
    <glyph glyph-name="glyph227" horiz-adv-x="1024" 
d="M297 1784q0 90 61 152.5t152 62.5q92 0 154.5 -62.5t62.5 -152.5q0 -89 -62 -152t-155 -63q-91 0 -152 62t-61 153zM416 1782q0 -42 28 -69t68 -27q43 0 70.5 27t27.5 69t-27.5 70t-70.5 28q-41 0 -68.5 -29t-27.5 -69z" />
    <glyph glyph-name="glyph228" horiz-adv-x="1024" 
d="M877 1817l-232 -248h-266l-232 248l148 51l217 -168l217 168z" />
    <glyph glyph-name="glyph232" horiz-adv-x="684" 
d="M512 627l-299 -365h152v154h192v-154h105v-133h-105v-129h-192v129h-334v125l340 451z" />
    <glyph glyph-name="glyph233" horiz-adv-x="684" 
d="M334 680q136 0 203 -44t67 -138q0 -63 -37 -108t-159 -118q-116 -70 -137 -87.5t-21 -39.5v-4h381v-141h-559v88q0 82 37.5 138t142.5 118q75 41 114.5 70.5t39.5 64.5q0 64 -89 64q-102 0 -178 -37l-45 131q115 43 240 43z" />
    </font>
</defs>
</svg>
